<?xml version="1.0" encoding="UTF-8"?>
<svg xmlns="http://www.w3.org/2000/svg" xmlns:xlink="http://www.w3.org/1999/xlink" width="781.883pt" height="980.658pt" viewBox="0 0 781.883 980.658" version="1.1">
<g id="surface1">
<path class="path" fill="black" stroke="white" stroke-width="1"
	d="M 437.582031 295.457031 C 433.445313 294.539063 429.273438 293.597656 425.007813 293.695313 C 420.609375 293.792969 416.035156 294.917969 411.699219 293.667969 C 407.164063 292.355469 404.875 288.21875 404.285156 283.746094 C 403.679688 279.125 405.40625 275.226563 409.472656 272.886719 C 417.019531 268.546875 427.109375 269.507813 435.375 270.765625 C 439.660156 271.414063 444.074219 272.726563 447.367188 275.679688 C 450.921875 278.871094 452.070313 283.382813 452.160156 288.015625 C 452.234375 292.097656 452.097656 296.773438 450.253906 300.492188 C 448.289063 304.441406 443.929688 306.066406 440.210938 307.902344 C 434.8125 310.5625 428.46875 314.890625 431.242188 321.863281 C 432.648438 325.402344 436.457031 327.363281 435.722656 331.664063 C 435.136719 335.078125 432.429688 337.910156 430.046875 340.238281 C 424.839844 345.328125 419.359375 350.53125 412.976563 354.097656 C 403.921875 359.160156 393.917969 359.917969 383.808594 358.363281 C 378.792969 357.59375 373.890625 356.179688 369.3125 353.976563 C 365.230469 352.011719 361.074219 349.445313 359.3125 345.058594 C 358.796875 345.570313 358.285156 346.085938 357.773438 346.597656 C 362.695313 347.429688 367.019531 345.683594 371.527344 343.914063 C 373.75 343.042969 376.027344 342.226563 378.410156 341.953125 C 381.398438 341.613281 383.511719 342.617188 386.179688 343.769531 C 387.53125 344.355469 388.921875 344.699219 390.394531 344.398438 C 392.703125 343.925781 394.625 342.226563 397.007813 342.054688 C 399.488281 341.875 401.527344 343.339844 403.609375 344.476563 C 405.484375 345.5 407.453125 346.335938 409.527344 346.871094 C 413.734375 347.957031 417.730469 347.140625 421.949219 347.535156 C 428.515625 348.144531 427.183594 354.628906 424.765625 358.707031 C 420.296875 366.238281 412.265625 370.65625 403.769531 371.945313 C 400.75 372.40625 397.027344 372.800781 395.234375 375.660156 C 393.054688 379.140625 395.4375 383.078125 397.566406 385.898438 C 399.988281 389.109375 405.648438 394.9375 402.253906 399.109375 C 399.011719 403.101563 392.65625 403.054688 388.011719 402.925781 C 382.714844 402.78125 377.234375 402.199219 372.167969 400.582031 C 367.316406 399.035156 362.773438 396.472656 358.40625 393.890625 C 349.953125 388.886719 341.011719 382.84375 334.691406 375.222656 C 327.496094 366.542969 328.257813 354.886719 327.105469 344.296875 C 326.589844 339.585938 326.335938 334.636719 325.160156 330.03125 C 324.675781 328.136719 323.882813 326.449219 322.8125 324.816406 C 322.144531 323.800781 321.3125 322.773438 320.960938 321.589844 C 320.488281 319.984375 321.046875 318.386719 321.457031 316.839844 C 322.625 312.429688 321.984375 308.164063 320.328125 303.960938 C 318.910156 300.375 317.195313 296.519531 314.828125 293.445313 C 312.878906 290.917969 309.996094 289.1875 306.734375 290.1875 C 303.039063 291.320313 301.957031 294.820313 301.671875 298.292969 C 301.292969 302.964844 300.5 308.03125 301.152344 312.691406 C 301.765625 317.0625 304.4375 320.859375 306.917969 324.386719 C 309.746094 328.410156 312.070313 332.25 314.074219 336.746094 C 315.585938 340.140625 317.617188 343.367188 320.667969 345.578125 C 324.175781 348.121094 328.554688 348.574219 332.585938 349.832031 C 337.019531 351.214844 341.179688 353.539063 344.707031 356.5625 C 348.203125 359.5625 350.945313 363.175781 353.105469 367.230469 C 355.132813 371.046875 356.851563 375.082031 359.792969 378.316406 C 366.003906 385.144531 377.027344 386.144531 382.171875 394.035156 C 384.703125 397.914063 384.875 403.84375 380.375 406.351563 C 376.425781 408.550781 371.40625 407.363281 367.117188 407.632813 C 359.464844 408.109375 354.445313 413.4375 355.679688 421.171875 C 356.398438 425.65625 358.222656 430.023438 359.546875 434.351563 C 361.078125 439.34375 362.613281 444.332031 364.398438 449.238281 C 367.570313 457.957031 370.777344 466.703125 374.964844 474.996094 C 377.101563 479.234375 379.503906 483.351563 382.328125 487.171875 C 385.390625 491.324219 388.875 495.257813 390.808594 500.113281 C 394.527344 509.445313 392.40625 520.035156 387.273438 528.386719 C 384.730469 532.527344 381.484375 536.195313 377.878906 539.441406 C 374.800781 542.207031 371.230469 544.535156 368.699219 547.859375 C 363.035156 555.304688 367.902344 564.59375 371.351563 571.953125 C 373.386719 576.304688 375.632813 580.605469 378.4375 584.515625 C 381.210938 588.382813 384.417969 592.039063 386.355469 596.429688 C 390.171875 605.085938 390.597656 615.117188 390.023438 624.425781 C 389.421875 634.160156 387.460938 643.761719 384.433594 653.027344 C 381.230469 662.835938 376.886719 672.234375 372.023438 681.320313 C 367.8125 689.183594 362.097656 697.078125 361.148438 706.1875 C 360.105469 716.203125 364.230469 726.363281 366.875 735.84375 C 368.179688 740.523438 369.738281 745.046875 371.632813 749.523438 C 373.800781 754.644531 375.75 759.75 375.371094 765.414063 C 375 770.953125 372.859375 776.085938 371.691406 781.457031 C 370.863281 785.273438 370.5625 789.429688 372.507813 792.964844 C 376.339844 799.933594 386.171875 800.339844 393.132813 800.53125 C 404.015625 800.832031 414.898438 799.933594 425.792969 800.230469 C 436.660156 800.527344 447.511719 801.21875 458.378906 801.546875 C 469.199219 801.875 480.054688 801.84375 490.828125 800.648438 C 499.714844 799.660156 509.285156 798.304688 517.488281 794.5625 C 523.644531 791.753906 528.269531 786.769531 529.648438 780.035156 C 531.605469 770.476563 528.582031 760.679688 526.953125 751.3125 C 525.425781 742.503906 525.144531 732.777344 530.660156 725.234375 C 531.613281 723.933594 529.445313 722.683594 528.503906 723.972656 C 516.316406 740.636719 530.429688 760.632813 527.375 778.648438 C 526.066406 786.355469 520.457031 791.101563 513.328125 793.539063 C 503.691406 796.832031 493.242188 798.167969 483.121094 798.816406 C 461.414063 800.199219 439.707031 797.726563 417.996094 797.597656 C 407.519531 797.535156 396.898438 798.847656 386.457031 797.574219 C 382.292969 797.066406 377.214844 795.960938 374.875 792.082031 C 372.148438 787.566406 374.082031 781.867188 375.417969 777.21875 C 376.796875 772.414063 378.171875 767.433594 377.902344 762.382813 C 377.65625 757.777344 376 753.480469 374.222656 749.277344 C 370.199219 739.753906 367.269531 729.5 364.902344 719.433594 C 363.679688 714.242188 362.898438 708.734375 364.140625 703.472656 C 365.25 698.761719 367.5625 694.464844 369.914063 690.277344 C 374.707031 681.734375 379.273438 673.105469 383.007813 664.042969 C 390.082031 646.886719 394.488281 627.558594 392.128906 608.941406 C 391.578125 604.59375 390.613281 600.292969 388.960938 596.226563 C 387.28125 592.101563 384.585938 588.625 381.945313 585.085938 C 379.066406 581.226563 376.671875 577.148438 374.539063 572.832031 C 372.328125 568.363281 370.0625 563.613281 368.898438 558.738281 C 367.601563 553.3125 370.019531 549.457031 373.96875 545.984375 C 377.378906 542.988281 380.941406 540.269531 383.992188 536.875 C 389.753906 530.464844 393.980469 522.648438 394.964844 514 C 396.078125 504.246094 392.445313 496.230469 386.601563 488.664063 C 380.589844 480.875 376.109375 472.347656 372.386719 463.257813 C 368.679688 454.207031 365.421875 444.972656 362.554688 435.625 C 361.15625 431.074219 359.382813 426.527344 358.355469 421.878906 C 357.355469 417.359375 358.382813 412.734375 363.132813 410.917969 C 370.042969 408.277344 380.28125 413.058594 385.03125 405.316406 C 389.230469 398.46875 384.078125 390.882813 378.382813 387.03125 C 374.679688 384.523438 370.464844 382.914063 366.648438 380.601563 C 362.289063 377.957031 359.578125 374.351563 357.265625 369.882813 C 353.289063 362.207031 348.867188 355.601563 341.292969 351.039063 C 337.75 348.902344 333.941406 347.53125 329.941406 346.53125 C 324.898438 345.273438 320.839844 343.566406 318.027344 338.960938 C 315.730469 335.199219 314.515625 331 312.03125 327.316406 C 309.359375 323.351563 305.90625 319.492188 304.269531 314.933594 C 302.574219 310.226563 303.738281 304.554688 304.078125 299.679688 C 304.261719 296.996094 304.355469 293.632813 307.402344 292.597656 C 310.046875 291.699219 312.105469 293.792969 313.4375 295.785156 C 315.894531 299.457031 318.050781 303.949219 319.097656 308.230469 C 319.761719 310.941406 319.757813 313.488281 319.046875 316.175781 C 318.546875 318.050781 317.992188 319.917969 318.460938 321.863281 C 318.910156 323.730469 320.121094 325.164063 321.105469 326.765625 C 322.394531 328.867188 322.953125 331.199219 323.3125 333.617188 C 324.148438 339.21875 324.722656 344.886719 325.226563 350.527344 C 326.058594 359.882813 326.40625 369.046875 332.636719 376.648438 C 338.636719 383.972656 347.097656 389.859375 355.09375 394.804688 C 363.324219 399.898438 371.5 403.734375 381.179688 404.914063 C 388.253906 405.777344 400.214844 407.085938 404.804688 399.921875 C 406.882813 396.679688 405.304688 392.660156 403.464844 389.691406 C 401.558594 386.621094 394.40625 380.363281 397.707031 376.574219 C 400.035156 373.90625 405.84375 374.300781 409.042969 373.371094 C 412.773438 372.289063 416.332031 370.5625 419.4375 368.226563 C 424.324219 364.550781 431.054688 357.015625 429.171875 350.25 C 428.285156 347.074219 425.429688 345.402344 422.3125 345.074219 C 417.886719 344.605469 413.742188 345.550781 409.339844 344.222656 C 405.394531 343.03125 401.875 339.574219 397.632813 339.496094 C 395.921875 339.46875 394.351563 340.09375 392.816406 340.777344 C 391.703125 341.273438 390.535156 341.992188 389.285156 342.023438 C 387.867188 342.058594 386.5625 341.164063 385.332031 340.589844 C 375.867188 336.183594 367.820313 345.769531 358.4375 344.1875 C 357.613281 344.046875 356.507813 344.746094 356.898438 345.726563 C 360.070313 353.613281 369.339844 357.421875 377.007813 359.488281 C 386.484375 362.042969 397.359375 362.800781 406.769531 359.605469 C 415.378906 356.683594 421.804688 351.066406 428.4375 345.117188 C 433.21875 340.832031 440.683594 334.371094 437.667969 327.082031 C 436.902344 325.230469 435.398438 323.964844 434.324219 322.320313 C 432.671875 319.796875 432.710938 316.71875 434.757813 314.433594 C 437.742188 311.101563 442.542969 309.777344 446.332031 307.628906 C 450.066406 305.511719 452.625 302.507813 453.6875 298.308594 C 454.800781 293.921875 454.992188 288.929688 454.390625 284.457031 C 453.136719 275.152344 445.746094 270.039063 436.964844 268.503906 C 428.113281 266.957031 417.511719 266.035156 409.214844 270.1875 C 405.277344 272.160156 402.390625 275.355469 401.792969 279.832031 C 401.199219 284.269531 402.507813 289.492188 405.554688 292.84375 C 408.6875 296.285156 413.597656 296.894531 417.996094 296.6875 C 420.988281 296.546875 423.957031 296.078125 426.960938 296.210938 C 430.332031 296.363281 433.636719 297.140625 436.917969 297.867188 C 438.488281 298.214844 439.15625 295.804688 437.582031 295.457031 M 440.507813 290.988281 C 441.023438 291.433594 441.519531 291.90625 441.980469 292.410156 C 442.175781 292.628906 442.367188 292.851563 442.554688 293.078125 C 442.605469 293.144531 442.65625 293.207031 442.710938 293.273438 C 442.640625 293.1875 442.648438 293.199219 442.738281 293.320313 C 442.835938 293.453125 442.933594 293.585938 443.027344 293.722656 C 443.210938 293.996094 443.386719 294.273438 443.546875 294.558594 C 443.605469 294.660156 443.660156 294.761719 443.710938 294.867188 C 443.601563 294.632813 443.761719 295.042969 443.773438 295.097656 C 443.792969 295.167969 443.804688 295.238281 443.816406 295.3125 C 443.796875 295.160156 443.792969 295.160156 443.804688 295.308594 C 443.808594 295.378906 443.804688 295.453125 443.800781 295.523438 C 443.828125 295.371094 443.828125 295.367188 443.800781 295.515625 C 443.78125 295.585938 443.617188 295.949219 443.742188 295.734375 C 443.707031 295.800781 443.667969 295.867188 443.625 295.929688 C 443.691406 295.851563 443.699219 295.839844 443.644531 295.902344 C 443.597656 295.957031 443.328125 296.175781 443.578125 296 C 443.472656 296.074219 443.363281 296.128906 443.25 296.195313 C 443.519531 296.039063 443.1875 296.210938 443.101563 296.238281 C 442.976563 296.273438 442.847656 296.296875 442.71875 296.316406 C 443.054688 296.261719 442.621094 296.316406 442.554688 296.320313 C 442.453125 296.320313 442.351563 296.320313 442.25 296.320313 C 441.984375 296.316406 441.714844 296.289063 441.449219 296.257813 C 441.796875 296.300781 441.371094 296.242188 441.304688 296.230469 C 441.167969 296.207031 441.03125 296.179688 440.894531 296.152344 C 440.554688 296.089844 440.21875 296.019531 439.886719 295.953125 C 439.117188 295.792969 438.351563 295.625 437.582031 295.457031 C 436.945313 295.316406 436.199219 295.648438 436.046875 296.328125 C 435.902344 296.960938 436.234375 297.714844 436.917969 297.867188 C 438.183594 298.148438 439.453125 298.445313 440.734375 298.65625 C 441.769531 298.828125 442.890625 298.945313 443.90625 298.605469 C 445.183594 298.175781 446.089844 297.148438 446.269531 295.796875 C 446.445313 294.496094 445.804688 293.339844 445.078125 292.308594 C 444.277344 291.164063 443.332031 290.132813 442.277344 289.21875 C 441.785156 288.789063 440.988281 288.699219 440.507813 289.21875 C 440.078125 289.6875 439.980469 290.527344 440.507813 290.988281 M 105.171875 635.921875 C 104.761719 654.859375 103.496094 673.757813 103.160156 692.703125 C 102.824219 711.714844 102.488281 730.722656 102.148438 749.734375 C 101.976563 759.546875 101.644531 769.375 101.65625 779.191406 C 101.664063 786.175781 102.070313 794.25 105.445313 800.566406 C 108.679688 806.625 115.132813 807.90625 121.449219 808.304688 C 130.726563 808.890625 140.019531 809.140625 149.3125 809.183594 C 168.695313 809.273438 188.082031 808.648438 207.464844 808.5625 C 226.476563 808.476563 245.484375 808.53125 264.496094 808.558594 C 302.566406 808.609375 340.640625 808.609375 378.710938 808.632813 C 455.523438 808.679688 532.335938 808.726563 609.148438 808.773438 C 628.296875 808.785156 647.515625 809.265625 666.65625 808.777344 C 673.34375 808.609375 680.371094 807.464844 684.875 802.027344 C 688.871094 797.207031 689.902344 790.683594 690.289063 784.625 C 691.484375 765.886719 691.109375 746.925781 691.476563 728.152344 C 691.816406 710.570313 692.214844 693.011719 692.945313 675.445313 C 693.585938 660.082031 693.5625 644.097656 687.496094 629.683594 C 684.339844 622.1875 679.175781 615.863281 675.5625 608.613281 C 673.632813 604.746094 672.125 600.597656 671.78125 596.265625 C 671.453125 592.179688 672.414063 588.089844 671.878906 584.015625 C 670.847656 576.230469 662.976563 572.300781 660.636719 565.003906 C 659.488281 561.414063 659.09375 557.632813 658.308594 553.957031 C 657.4375 549.851563 655.953125 545.996094 653.957031 542.304688 C 649.859375 534.734375 644.386719 527.792969 639.191406 520.957031 C 633.984375 514.113281 628.585938 507.421875 623.019531 500.871094 C 617.257813 494.09375 611.324219 487.460938 605.261719 480.945313 C 600.136719 475.441406 594.894531 469.273438 587.875 466.148438 C 573.628906 459.792969 560.550781 471.121094 555.296875 483.75 C 548.738281 499.511719 547.933594 517.992188 548.742188 534.824219 C 549.539063 551.40625 551.433594 568.746094 556.210938 584.691406 C 558.347656 591.835938 561.144531 599.636719 565.699219 605.625 C 569.820313 611.039063 576.382813 611.691406 582.597656 609.964844 C 598.148438 605.644531 606.203125 590.714844 617.984375 581.085938 C 624.535156 575.730469 631.910156 571.4375 638.894531 566.691406 C 644.296875 563.019531 647.222656 557.898438 645.59375 551.257813 C 644.6875 547.554688 642.617188 544.371094 640.617188 541.191406 C 638.085938 537.164063 635.894531 533.207031 634.449219 528.65625 C 632.835938 523.582031 630.519531 518.609375 624.296875 519.996094 C 618.105469 521.378906 616.101563 526.703125 614.40625 532.175781 C 611.867188 540.375 606.785156 547.082031 601.753906 553.902344 C 595.867188 561.886719 589.976563 569.867188 584.089844 577.851563 C 581.527344 581.320313 579.03125 584.847656 576.40625 588.265625 C 574.324219 590.980469 571.589844 593.46875 570.210938 596.660156 C 568.9375 599.605469 569.3125 602.894531 569.515625 606.007813 C 569.78125 610.136719 569.71875 614.28125 569.882813 618.414063 C 570.210938 626.730469 570.933594 635.058594 572.492188 643.242188 C 574.046875 651.40625 576.460938 659.433594 580.109375 666.917969 C 583.683594 674.253906 588.953125 680.3125 593.261719 687.179688 C 597.992188 694.71875 598.742188 703.191406 601.632813 711.410156 C 603.621094 717.066406 607.273438 723.398438 614.089844 723.28125 C 622.0625 723.148438 627.226563 715.390625 633.136719 711.183594 C 639.683594 706.523438 647.347656 703.449219 655.296875 702.277344 C 659.214844 701.703125 663.074219 701.832031 667.015625 701.878906 C 670.382813 701.917969 674.03125 701.550781 676.746094 699.339844 C 680.691406 696.132813 680.414063 690.527344 676.210938 687.71875 C 674.007813 686.246094 671.316406 685.621094 668.730469 685.238281 C 664.128906 684.5625 659.433594 684.214844 654.792969 683.980469 C 645.921875 683.527344 636.960938 683.855469 628.238281 685.648438 C 621 687.132813 613.910156 689.652344 607.519531 693.386719 C 602.242188 696.46875 595.128906 701.070313 592.953125 707.085938 C 590.914063 712.703125 594.054688 716.890625 597.816406 720.742188 C 600.144531 723.128906 602.171875 725.382813 602.953125 728.710938 C 603.828125 732.445313 603.4375 736.4375 604.925781 740.039063 C 607.390625 745.980469 613.882813 749.277344 619.5625 751.425781 C 627.207031 754.308594 635.367188 755.792969 641.378906 761.761719 C 643.589844 763.957031 645.671875 766.472656 648.648438 767.667969 C 652.308594 769.132813 656.125 768.070313 659.777344 767.152344 C 668.90625 764.855469 678.453125 764.726563 687.597656 767.039063 C 693.226563 768.464844 700.839844 773.300781 705.390625 767.308594 C 707.652344 764.328125 708.800781 760.125 710.015625 756.664063 C 711.488281 752.488281 712.902344 748.207031 713.625 743.824219 C 714.757813 736.933594 713.386719 730.394531 708.609375 725.160156 C 703.546875 719.609375 696.164063 716.640625 688.828125 715.703125 C 673.371094 713.734375 658.511719 720.847656 647.269531 731.011719 C 642.019531 735.761719 637.15625 741.675781 636.265625 748.9375 C 635.738281 753.265625 636.726563 757.582031 634.160156 761.433594 C 631.914063 764.8125 629.011719 767.175781 627.484375 771.066406 C 626.21875 774.28125 625.796875 777.722656 625.460938 781.140625 C 625.042969 785.433594 625.378906 791.183594 621.308594 793.875 C 617.703125 796.261719 612.855469 796.351563 608.707031 796.679688 C 604.011719 797.050781 599.3125 797.25 594.605469 797.304688 C 590.398438 797.355469 585.59375 797.753906 581.710938 795.828125 C 577.691406 793.832031 575.675781 789.574219 574.019531 785.640625 C 570.519531 777.324219 566.476563 769.164063 563.6875 760.570313 C 552 724.554688 556.324219 685.902344 562.859375 649.355469 C 563.945313 643.292969 566.59375 635.214844 563.257813 629.386719 C 559.816406 623.363281 551.855469 623.851563 545.863281 623.652344 C 537.6875 623.386719 529.636719 623.851563 521.980469 626.972656 C 514.738281 629.925781 507.734375 634.761719 499.730469 635.25 C 491.675781 635.742188 485.164063 630.136719 477.320313 629.546875 C 472.15625 629.15625 466.308594 630.984375 464.402344 636.269531 C 463.070313 639.964844 463.835938 644.195313 464.097656 648 C 464.421875 652.664063 464.714844 657.335938 465 662.003906 C 465.585938 671.542969 466.125 681.085938 466.757813 690.621094 C 467.390625 700.144531 468.117188 709.660156 469.078125 719.15625 C 469.800781 726.292969 469.921875 734.664063 474.800781 740.433594 C 486.339844 754.066406 504.53125 735.515625 513.800781 728.378906 C 520.855469 722.949219 528.078125 717.683594 534.960938 712.039063 C 540.890625 707.171875 545.046875 701.445313 546.519531 693.8125 C 548.070313 685.800781 547.023438 677.675781 547.023438 669.59375 C 547.023438 664.804688 548.019531 660.464844 548.734375 655.777344 C 549.363281 651.652344 549.136719 647.425781 548.957031 643.273438 C 548.171875 624.910156 551.648438 606.539063 549.21875 588.234375 C 546.789063 569.902344 541.191406 552.269531 539.742188 533.757813 C 538.988281 524.132813 539.222656 514.488281 539.082031 504.847656 C 539.023438 500.820313 538.917969 496.75 539.894531 492.816406 C 540.929688 488.632813 542.847656 484.753906 544.5625 480.824219 C 547.253906 474.652344 549.570313 467.910156 548.285156 461.089844 C 547.015625 454.347656 541.589844 450.925781 535.652344 448.511719 C 526.992188 444.996094 518.183594 441.285156 509.28125 438.449219 C 505.507813 437.25 501.972656 435.984375 498.445313 434.175781 C 494.90625 432.355469 490.613281 429.996094 486.613281 429.542969 C 481.191406 428.925781 477.945313 432.460938 477.308594 437.523438 C 476.257813 445.933594 477.148438 454.726563 477.691406 463.148438 C 478.320313 472.871094 479.261719 482.578125 480.511719 492.238281 C 481.015625 496.132813 481.566406 500.019531 482.164063 503.898438 C 482.835938 508.226563 484.015625 513.691406 481.421875 517.648438 C 478.632813 521.90625 473.300781 523.878906 475.945313 529.925781 C 477.378906 533.195313 480.644531 535.507813 482.585938 538.484375 C 484.699219 541.734375 486.210938 545.3125 487.210938 549.050781 C 489.351563 557.066406 489.089844 565.472656 488.703125 573.683594 C 488.253906 583.28125 487.304688 592.847656 486.339844 602.402344 C 485.714844 608.554688 483.640625 616.753906 487.246094 622.398438 C 490.621094 627.683594 497.683594 627.753906 502.316406 624.164063 C 507.414063 620.214844 508.816406 613.488281 509.035156 607.382813 C 509.34375 598.695313 507.34375 589.921875 508.6875 581.273438 C 509.964844 573.046875 515.164063 567.316406 519.949219 560.886719 C 524.480469 554.792969 527.113281 548.21875 526.996094 540.539063 C 526.871094 532.375 523.984375 524.621094 520.636719 517.28125 C 516.714844 508.699219 512.480469 500.25 508.386719 491.75 C 500.207031 474.765625 492.027344 457.785156 483.847656 440.804688 C 480.164063 433.152344 476.824219 425.136719 471.523438 418.425781 C 468.367188 414.425781 461.726563 408.011719 456.992188 413.878906 C 455.1875 416.113281 454.640625 419.195313 454.296875 421.960938 C 453.710938 426.699219 453.445313 431.507813 453.140625 436.269531 C 452.566406 445.15625 452.304688 454.066406 452.195313 462.96875 C 452.140625 467.351563 452.089844 472.136719 450.210938 476.191406 C 448.652344 479.554688 445.609375 481.929688 442.816406 484.230469 C 437.96875 488.21875 434.542969 493.03125 436.976563 499.523438 C 438.441406 503.425781 440.027344 507.015625 440.660156 511.175781 C 441.386719 515.925781 441.214844 520.792969 440.664063 525.550781 C 439.632813 534.480469 437.484375 543.359375 435.527344 552.125 C 433.59375 560.769531 431.402344 569.371094 428.488281 577.742188 C 425.324219 586.820313 420.953125 595.328125 416.972656 604.054688 C 413.699219 611.226563 410.523438 618.707031 409.140625 626.507813 C 408.230469 631.640625 410.171875 638.914063 416.34375 639.609375 C 420.8125 640.117188 424.773438 635.875 424.695313 631.519531 C 424.605469 626.308594 418.941406 622.878906 414.132813 623.808594 C 408.292969 624.9375 405.847656 631.066406 404.835938 636.253906 C 403.171875 644.800781 402.472656 653.613281 401.292969 662.242188 C 400.042969 671.382813 398.757813 680.519531 397.527344 689.660156 C 396.476563 697.476563 395.320313 705.777344 396.640625 713.628906 C 397.546875 719.011719 400.226563 724.351563 405.722656 726.1875 C 410.300781 727.71875 416.042969 725.546875 417.066406 720.460938 C 417.964844 716.007813 414.652344 712.015625 410.675781 710.503906 C 405.714844 708.617188 401.269531 710.648438 398.835938 715.199219 C 395.355469 721.707031 395.214844 730.261719 394.21875 737.429688 C 393.015625 746.128906 392.394531 754.90625 392.402344 763.691406 C 392.402344 768.226563 392.570313 772.761719 392.910156 777.285156 C 393.164063 780.648438 393.066406 784.554688 394.390625 787.707031 C 395.632813 790.667969 398.0625 791.675781 401.035156 792.296875 C 405.292969 793.191406 409.71875 793.78125 414.074219 793.683594 C 420.210938 793.542969 426.5 792.464844 428.453125 785.847656 C 430.789063 777.945313 430.65625 769.3125 431.054688 761.15625 C 431.960938 742.480469 431.816406 723.84375 432.125 705.15625 C 432.433594 686.3125 432.894531 667.460938 432.96875 648.609375 C 433 640.992188 433.5625 633.039063 432.519531 625.472656 C 431.472656 617.855469 427.636719 612.605469 421.742188 607.839844 C 414.996094 602.390625 408.609375 597.207031 403.597656 590.011719 C 398.945313 583.332031 395.789063 575.976563 393.664063 568.140625 C 391.566406 560.386719 389.535156 552.976563 384.640625 546.445313 C 380.234375 540.570313 374.601563 535.585938 368.816406 531.109375 C 362.742188 526.40625 356.40625 522.246094 354.304688 514.398438 C 353.253906 510.472656 352.898438 506.402344 352.089844 502.425781 C 351.238281 498.246094 349.71875 494.324219 347.839844 490.503906 C 344.089844 482.894531 339.59375 475.898438 337.664063 467.527344 C 335.574219 458.46875 335.480469 449.132813 334.953125 439.894531 C 334.714844 435.710938 334.390625 431.523438 333.777344 427.375 C 333.378906 424.65625 332.867188 421.507813 330.886719 419.429688 C 326.050781 414.351563 319.582031 421.722656 315.382813 424.15625 C 311.898438 426.171875 308.222656 427.835938 304.441406 429.214844 C 300.765625 430.554688 297.140625 431.386719 293.757813 433.371094 C 286.003906 437.914063 278.238281 442.183594 270.792969 447.246094 C 256.089844 457.25 241.914063 468.09375 225.808594 475.828125 C 219.195313 479 212.207031 481.523438 206.039063 485.558594 C 199.382813 489.917969 193.851563 496.285156 188.46875 502.074219 C 177.195313 514.195313 166.507813 527.101563 158.589844 541.707031 C 154.890625 548.53125 151.796875 555.707031 149.585938 563.15625 C 147.152344 571.339844 146.117188 580.074219 141.886719 587.621094 C 138.1875 594.21875 132.613281 599.734375 130.671875 607.238281 C 128.589844 615.308594 130.363281 623.761719 128.660156 631.886719 C 125.953125 644.804688 117.25 655.410156 109.792969 665.917969 C 102.210938 676.597656 95.738281 687.632813 95.25 701.035156 C 95.105469 705.027344 95.210938 709.269531 93.300781 712.90625 C 91.265625 716.792969 87.359375 719.152344 83.871094 721.578125 C 79.171875 724.847656 74.945313 728.914063 72.761719 734.332031 C 70.882813 738.984375 72.210938 743.953125 76.742188 746.480469 C 81.261719 749 87.070313 748.328125 91.933594 747.394531 C 109.792969 743.96875 127.710938 738.570313 145.988281 742.542969 C 162.128906 746.054688 176.351563 755.722656 186.777344 768.371094 C 191.976563 774.683594 196.257813 781.746094 199.695313 789.15625 C 201.398438 792.820313 202.945313 796.589844 204.164063 800.441406 C 205.453125 804.527344 206.066406 814.628906 198.878906 813.128906 C 195.214844 812.363281 193.070313 807.378906 191.257813 804.5625 C 189.042969 801.117188 186.703125 797.753906 184.191406 794.515625 C 179.328125 788.238281 173.777344 782.46875 167.304688 777.839844 C 161.175781 773.453125 154.140625 770.0625 146.726563 768.5625 C 138.5625 766.914063 130.851563 769.359375 123.113281 771.796875 C 115.421875 774.21875 108.117188 777.203125 101.101563 781.210938 C 97.527344 783.25 94.058594 785.476563 90.671875 787.816406 C 87 790.351563 83.578125 793.496094 79.78125 795.820313 C 70.898438 801.261719 70.933594 785.46875 70.566406 780.371094 C 70.003906 772.519531 70.238281 764.441406 72.585938 756.871094 C 77.710938 740.339844 93.757813 734.101563 109.511719 731.496094 C 127.886719 728.453125 145.566406 731.484375 162.855469 737.875 C 176.109375 742.769531 192.886719 747.851563 204.941406 737.289063 C 214.800781 728.652344 207.503906 713.695313 198.6875 707.507813 C 192.382813 703.082031 184.597656 700.835938 177.152344 699.246094 C 168.851563 697.472656 160.324219 696.738281 151.839844 697 C 143.339844 697.261719 134.847656 698.492188 126.617188 700.636719 C 122.988281 701.585938 119.226563 702.558594 115.78125 704.058594 C 113.695313 704.96875 111.246094 706.488281 111.085938 709.027344 C 110.6875 715.265625 122.429688 715.199219 126.242188 715.734375 C 134.8125 716.933594 143.503906 717.789063 151.820313 720.300781 C 159.253906 722.542969 166.5625 726.226563 171.863281 732.023438 C 174.289063 734.671875 176.003906 737.679688 177.480469 740.933594 C 179.085938 744.460938 180.65625 748.164063 183.871094 750.542969 C 189.679688 754.84375 196.40625 751.238281 201.820313 748.09375 C 207.261719 744.933594 212.765625 740.914063 214.039063 734.351563 C 214.777344 730.5625 214.117188 726.726563 213.996094 722.917969 C 213.832031 717.824219 215.109375 713.0625 218.351563 709.046875 C 222.9375 703.371094 227.425781 699.140625 228.039063 691.429688 C 228.347656 687.5625 227.851563 683.6875 227.964844 679.816406 C 228.105469 675 229.632813 670.988281 232.699219 667.320313 C 237.09375 662.066406 242.332031 657.757813 245.132813 651.320313 C 246.527344 648.113281 246.605469 645.195313 245.851563 641.835938 C 244.773438 637.027344 243.925781 632.527344 243.890625 627.550781 C 243.824219 618.253906 245.453125 609.082031 247.058594 599.960938 C 248.566406 591.421875 250.085938 582.824219 250.246094 574.128906 C 250.40625 565.378906 249.183594 556.660156 247.523438 548.089844 C 244.851563 534.300781 242.460938 518.03125 233.082031 506.941406 C 228.84375 501.925781 222.898438 498.230469 216.273438 497.640625 C 209.363281 497.027344 203.5625 500.460938 199.171875 505.550781 C 194.292969 511.207031 190.128906 517.757813 185.785156 523.832031 C 180.621094 531.050781 175.769531 538.519531 171.785156 546.460938 C 168.148438 553.699219 165.191406 561.324219 163.441406 569.242188 C 161.703125 577.09375 162.261719 585.898438 158.691406 593.238281 C 155.535156 599.738281 148.335938 603.585938 146.476563 610.824219 C 144.792969 617.382813 147.742188 623.40625 153.09375 627.171875 C 166.535156 636.628906 183.195313 642.296875 199.015625 646.25 C 210.277344 649.0625 228.605469 654.042969 235.445313 640.902344 C 238.070313 635.859375 238.839844 627.777344 245.53125 626.46875 C 253.835938 624.847656 260.371094 634.160156 262.867188 640.796875 C 268.316406 655.273438 264.433594 671.839844 271.988281 685.699219 C 273.691406 688.820313 275.851563 691.652344 277.769531 694.640625 C 280.554688 698.980469 282.09375 703.207031 282.652344 708.332031 C 283.070313 712.148438 283.109375 716.058594 284.371094 719.726563 C 285.746094 723.726563 287.710938 727.195313 287.980469 731.519531 C 288.539063 740.480469 284.273438 748.851563 283.101563 757.597656 C 282.472656 762.273438 282.675781 767.042969 281.765625 771.683594 C 280.953125 775.820313 279.230469 779.847656 279.382813 784.132813 C 279.617188 790.773438 284.230469 794.539063 290.464844 795.554688 C 298.65625 796.886719 307.398438 796.316406 315.679688 796.527344 C 322.5 796.707031 331.65625 798.492188 337.472656 793.917969 C 343.339844 789.3125 343.796875 781.277344 342.453125 774.523438 C 340.960938 767.011719 337.503906 760.285156 333.867188 753.625 C 329.796875 746.164063 326.636719 738.707031 324.59375 730.429688 C 320.046875 712.015625 319.640625 692.789063 318.628906 673.9375 C 317.65625 655.777344 316.433594 637.882813 312.167969 620.148438 C 310.066406 611.40625 307.15625 602.914063 304.867188 594.226563 C 302.457031 585.070313 301.714844 575.921875 301.878906 566.476563 C 302.210938 547.703125 303.1875 528.917969 303.796875 510.152344 C 303.945313 505.476563 304.136719 500.800781 304.246094 496.125 C 304.316406 493.117188 304.277344 489.941406 303.109375 487.113281 C 300.71875 481.328125 294.253906 480.484375 289.378906 483.839844 C 284.082031 487.480469 282.203125 494.066406 281.753906 500.160156 C 281.148438 508.417969 282.269531 516.925781 282.964844 525.148438 C 283.355469 529.8125 283.8125 534.46875 284.371094 539.117188 C 284.828125 542.929688 285.910156 546.957031 285.613281 550.804688 C 285.386719 553.777344 283.46875 556.726563 280.085938 554.65625 C 278.1875 553.496094 277.109375 551.433594 276.007813 549.585938 C 273.679688 545.6875 271.417969 541.75 269.269531 537.75 C 265.101563 529.972656 261.078125 521.871094 258.515625 513.40625 C 256.316406 506.152344 254.984375 497.371094 259.34375 490.621094 C 263.800781 483.722656 272 483.355469 279.097656 481.03125 C 286.023438 478.761719 292.578125 474.992188 298.308594 470.523438 C 301.425781 468.089844 303.953125 465.109375 306.925781 462.558594 C 310.957031 459.105469 315.890625 460.097656 317.328125 465.203125 C 319.582031 473.210938 316.875 481.878906 317.007813 490.007813 C 317.136719 497.855469 320.253906 504.460938 324.925781 510.636719 C 330.171875 517.570313 335.917969 524.199219 341.527344 530.839844 C 343.753906 533.480469 345.917969 535.480469 349.417969 536.0625 C 353.792969 536.785156 357.8125 536.449219 361.917969 538.582031 C 365.359375 540.367188 367.730469 543.023438 369.953125 546.121094 C 371.484375 548.253906 373.109375 550.46875 375.386719 551.863281 C 380.160156 554.792969 386.882813 553.347656 391.710938 551.363281 C 398.269531 548.671875 403.4375 543.824219 407.410156 538.03125 C 416.308594 525.046875 418.921875 508.648438 420.894531 493.371094 C 425.441406 458.175781 424.734375 421.386719 443.820313 390.082031 C 448.066406 383.121094 452.699219 376.273438 455.25 368.457031 C 457.863281 360.457031 456.972656 352.050781 457.945313 343.800781 C 458.988281 334.933594 461.898438 326.277344 466.300781 318.519531 C 468.316406 314.96875 470.636719 311.585938 473.269531 308.464844 C 474.675781 306.800781 476.160156 305.203125 477.722656 303.683594 C 479.285156 302.167969 481.234375 299.871094 483.292969 299.121094 C 490.691406 296.433594 489.191406 306.628906 488.886719 310.46875 C 488.507813 315.183594 488.34375 319.988281 487.582031 324.664063 C 486.21875 333.027344 481.242188 339.117188 474.875 344.390625 C 473.125 345.839844 471.308594 347.207031 469.484375 348.5625 C 467.558594 349.996094 465.195313 351.691406 463.71875 348.511719 C 461.683594 344.121094 461.859375 338.917969 465.742188 335.832031 C 467.515625 334.425781 469.144531 332.996094 469.144531 330.574219 C 469.144531 329.050781 468.328125 327.71875 467.867188 326.316406 C 466.859375 323.230469 468.296875 320.71875 470.546875 318.628906 C 472.53125 316.785156 474.941406 315.320313 476.328125 312.917969 C 477.867188 310.246094 479.164063 305.992188 478.652344 302.878906 C 478.09375 299.464844 474.878906 297.527344 473.828125 294.347656 C 472.683594 290.882813 474.503906 287.140625 473.417969 283.636719 C 472.570313 280.914063 470.382813 279.386719 468.179688 277.8125 C 464.113281 274.90625 462.929688 271.695313 462.929688 266.703125 C 462.9375 257.75 463.949219 248.769531 462.703125 239.847656 C 461.734375 232.917969 459.257813 225.859375 454.453125 220.632813 C 450.089844 215.882813 444 213.496094 437.722656 212.617188 C 428.902344 211.382813 419.839844 211.464844 411.085938 209.785156 C 403.507813 208.332031 392.863281 202.085938 396.355469 192.664063 C 398.214844 187.644531 404.605469 186.730469 406.828125 191.96875 C 407.828125 194.320313 409 196.085938 411.726563 196.441406 C 417.351563 197.183594 420.691406 190.9375 421.214844 186.214844 C 422.878906 171.160156 406.761719 163.632813 393.996094 165.195313 C 378.523438 167.089844 364.96875 177.175781 352.785156 186.148438 C 346.933594 190.460938 340.550781 194.382813 335.078125 199.167969 C 330.113281 203.511719 326.46875 209.980469 328.886719 216.632813 C 329.242188 217.609375 330.597656 217.910156 331.171875 216.929688 C 336.652344 207.550781 348.855469 202.945313 359.097656 206.894531 C 364.359375 208.925781 368.941406 212.867188 374.789063 213.125 C 378.792969 213.300781 382.953125 211.757813 384.734375 207.945313 C 387.003906 203.085938 384.953125 197.28125 386.59375 192.167969 C 388.324219 186.761719 392.578125 181.8125 398.214844 180.355469 C 403.460938 179 409.585938 180.605469 413.183594 184.75 C 416.722656 188.820313 416.382813 194.722656 419.421875 199.070313 C 422.390625 203.3125 427.355469 203.601563 432.09375 203.730469 C 438.109375 203.894531 443.988281 204.976563 449.570313 207.269531 C 461.199219 212.046875 469.746094 221.441406 473.929688 233.234375 C 477.921875 244.484375 478.421875 256.628906 478.542969 268.457031 C 478.558594 270.261719 478.992188 273.015625 476.148438 272.40625 C 474.910156 272.140625 473.539063 270.71875 472.777344 269.824219 C 470.5625 267.230469 469.796875 263.714844 469.3125 260.429688 C 468.253906 253.277344 468.542969 246.011719 468.054688 238.816406 C 467.210938 226.371094 463.117188 213.996094 456.839844 203.238281 C 453.851563 198.117188 450.339844 193.3125 446.527344 188.777344 C 443.277344 184.90625 439.757813 180.320313 435.605469 177.363281 C 433.113281 175.589844 427.84375 174.109375 426.46875 178.042969 C 425.796875 179.976563 426.839844 182.097656 426.914063 184.035156 C 427.027344 187.09375 426.097656 190.109375 424.441406 192.664063 C 420.992188 197.996094 414.800781 200.726563 408.554688 200.347656 C 401.863281 199.945313 395.855469 196.589844 390.0625 193.53125 C 385.148438 190.9375 379.859375 188.246094 374.195313 188.003906 C 368.933594 187.78125 363.628906 190.222656 359.414063 193.179688 C 354.789063 196.421875 351.449219 200.933594 347.730469 205.109375 C 343.460938 209.902344 338.257813 213.429688 333.332031 217.476563 C 324.3125 224.882813 321.207031 236.371094 318.828125 247.414063 C 317.480469 253.671875 316.628906 260.09375 316.519531 266.496094 C 316.417969 272.316406 315.796875 279.019531 317.890625 284.582031 C 321.765625 294.871094 332.53125 298.578125 342.644531 296.378906 C 345.597656 295.738281 348.476563 294.78125 351.445313 294.207031 C 355.414063 293.4375 359.421875 293.464844 363.4375 293.78125 C 366.632813 294.03125 369.851563 294.632813 373.054688 294.699219 C 374.855469 294.738281 376.945313 294.527344 378.269531 293.148438 C 381.183594 290.105469 378.523438 283.535156 377.988281 280.011719 C 377.238281 275.085938 377.222656 269.917969 372.386719 267.246094 C 367.949219 264.792969 362.121094 264.46875 357.203125 263.8125 C 351.832031 263.097656 345.1875 261.511719 340.085938 264.058594 C 335.328125 266.433594 332.652344 271.019531 331.339844 275.992188 C 331.03125 277.15625 332.5625 278.152344 333.429688 277.207031 C 334.0625 276.515625 335.683594 276.175781 336.585938 275.84375 C 338.230469 275.242188 339.917969 274.761719 341.640625 274.4375 C 346.050781 273.605469 350.519531 274.023438 354.941406 274.5 C 362.636719 275.332031 371.644531 276.132813 378.167969 280.769531 C 382.328125 283.730469 383.578125 287.917969 382.464844 292.839844 C 381.460938 297.253906 379.617188 302.265625 377.289063 306.136719 C 374.300781 311.109375 368.0625 315.523438 370.441406 322.1875 C 371.167969 324.214844 372.75 325.871094 374.710938 326.757813 C 378.222656 328.34375 381.867188 326.027344 385.285156 327.835938 C 387.390625 328.945313 389.277344 330.371094 391.796875 329.894531 C 394.550781 329.378906 396.277344 326.765625 398.929688 326.132813 C 401.769531 325.457031 404.101563 328.070313 406.964844 327.796875 C 409.359375 327.566406 410.824219 325.667969 411.640625 323.566406 C 412.726563 320.761719 412.769531 317.402344 411.769531 314.570313 C 410.855469 311.992188 408.953125 310.328125 407.125 308.402344 C 403.929688 305.042969 402.789063 300.367188 402.96875 295.773438 C 403.203125 289.734375 408.097656 287.507813 413.261719 286.109375 C 422.472656 283.613281 432.957031 284.808594 440.507813 290.988281 C 441.746094 291.996094 443.523438 290.238281 442.277344 289.21875 C 436.820313 284.757813 429.835938 282.4375 422.808594 282.355469 C 416.351563 282.277344 406.953125 283.644531 402.628906 289.050781 C 398.929688 293.675781 400.117188 302.574219 403.019531 307.324219 C 404.558594 309.839844 407.238281 311.410156 408.734375 313.9375 C 411.03125 317.820313 410.398438 327.023438 404.125 324.640625 C 401.699219 323.722656 399.757813 322.941406 397.246094 324.035156 C 395.902344 324.621094 394.824219 325.589844 393.59375 326.359375 C 391.300781 327.796875 389.664063 327.441406 387.320313 326.128906 C 384.714844 324.667969 382.710938 324.382813 379.738281 324.773438 C 372.847656 325.679688 371 319.347656 374.210938 314.214844 C 376.171875 311.078125 378.859375 308.78125 380.441406 305.382813 C 382.203125 301.59375 383.894531 297.570313 384.875 293.503906 C 386.527344 286.664063 383.855469 281.039063 377.804688 277.589844 C 370.3125 273.324219 361.019531 272.554688 352.609375 271.757813 C 348.359375 271.355469 344.132813 271.300781 339.949219 272.238281 C 337.742188 272.730469 333.335938 273.613281 331.660156 275.441406 L 333.75 276.65625 C 335.714844 269.21875 340.730469 264.789063 348.609375 265.382813 C 354.835938 265.851563 361.257813 266.539063 367.332031 268.039063 C 370.140625 268.730469 373.105469 269.863281 374.214844 272.785156 C 375.417969 275.964844 375.4375 279.878906 375.964844 283.21875 C 376.136719 284.320313 376.34375 285.402344 376.570313 286.492188 C 376.960938 288.347656 377.53125 289.988281 376.011719 291.347656 C 373.792969 293.324219 368.699219 291.777344 365.96875 291.507813 C 359.621094 290.890625 353.660156 290.992188 347.472656 292.578125 C 341.175781 294.1875 334.820313 295.949219 328.636719 292.890625 C 322.507813 289.859375 319.347656 283.960938 319.089844 277.289063 C 318.835938 270.652344 318.875 263.941406 319.675781 257.34375 C 320.492188 250.609375 321.996094 243.960938 324.085938 237.507813 C 325.753906 232.363281 327.390625 226.953125 331.121094 222.878906 C 335.117188 218.511719 340.363281 215.464844 344.800781 211.585938 C 349.398438 207.5625 352.824219 202.472656 357.191406 198.234375 C 361.445313 194.105469 367.632813 190.421875 373.726563 190.484375 C 380.011719 190.546875 385.839844 194.136719 391.230469 196.980469 C 400.179688 201.695313 411.078125 205.808594 420.511719 199.902344 C 424.164063 197.613281 427.03125 194.160156 428.46875 190.085938 C 429.140625 188.171875 429.484375 186.070313 429.414063 184.035156 C 429.378906 183.089844 429.089844 182.1875 429.035156 181.257813 C 428.992188 180.582031 428.933594 178.574219 429.664063 178.128906 C 430.554688 177.582031 432.378906 178.359375 433.238281 178.816406 C 435.488281 180.007813 437.195313 182.226563 438.921875 184.046875 C 441.054688 186.292969 443.132813 188.585938 445.113281 190.964844 C 449.003906 195.628906 452.535156 200.613281 455.492188 205.921875 C 462.109375 217.785156 465.347656 230.792969 465.8125 244.308594 C 466.132813 253.546875 464.691406 268.566406 474.074219 274.132813 C 477.359375 276.078125 480.578125 275.597656 481.027344 271.386719 C 481.601563 266.027344 480.941406 260.148438 480.542969 254.78125 C 479.753906 244.152344 477.800781 233.3125 472.425781 223.964844 C 467.234375 214.929688 458.988281 208.207031 449.292969 204.484375 C 444.457031 202.628906 439.308594 201.558594 434.136719 201.296875 C 431.214844 201.144531 428.113281 201.433594 425.296875 200.484375 C 421.765625 199.292969 420.402344 196.113281 419.394531 192.820313 C 418.097656 188.578125 416.949219 184.527344 413.460938 181.53125 C 410.335938 178.847656 406.179688 177.410156 402.074219 177.382813 C 393.128906 177.320313 385.878906 184.441406 383.800781 192.828125 C 382.59375 197.703125 385.132813 205.863281 380.601563 209.144531 C 375.175781 213.070313 368.492188 208.757813 363.535156 206.214844 C 355.304688 201.992188 345.980469 201.941406 337.910156 206.699219 C 334.203125 208.882813 331.179688 211.960938 329.015625 215.667969 C 329.773438 215.765625 330.535156 215.867188 331.296875 215.964844 C 328.011719 206.933594 336.851563 200.667969 343.207031 196.203125 C 349.605469 191.703125 355.78125 186.886719 362.207031 182.425781 C 374.34375 173.992188 391.070313 163.492188 406.429688 168.753906 C 414.257813 171.433594 420.578125 179.144531 418.40625 187.761719 C 417.953125 189.5625 417.035156 191.441406 415.628906 192.699219 C 414.484375 193.726563 412.171875 194.710938 410.730469 193.546875 C 409.824219 192.8125 409.425781 191.324219 408.871094 190.359375 C 407.65625 188.246094 406.125 186.664063 403.664063 186.039063 C 398.441406 184.710938 394.207031 189.125 393.472656 194 C 392.652344 199.453125 395.625 204.84375 399.953125 207.984375 C 405.757813 212.203125 413.03125 212.628906 419.914063 213.34375 C 427.734375 214.15625 436.402344 213.941406 443.859375 216.628906 C 460.9375 222.777344 461.175781 243.351563 460.671875 258.464844 C 460.480469 264.292969 459.101563 272.097656 463.265625 276.964844 C 465.277344 279.320313 468.632813 280.363281 470.355469 282.953125 C 472.488281 286.164063 470.460938 290.523438 471.183594 294.066406 C 471.808594 297.136719 474.226563 298.9375 475.597656 301.597656 C 477.515625 305.324219 474.964844 311.414063 472.128906 314.019531 C 470.019531 315.957031 467.613281 317.515625 466.15625 320.058594 C 464.5 322.945313 464.949219 325.328125 465.980469 328.292969 C 466.882813 330.886719 466.265625 332.261719 464.148438 333.925781 C 463.328125 334.570313 462.503906 335.175781 461.84375 335.996094 C 459.941406 338.351563 459.734375 341.402344 460.160156 344.292969 C 460.773438 348.421875 462.496094 354.949219 468.089844 352.507813 C 470.601563 351.414063 472.90625 349.136719 475.050781 347.441406 C 477.964844 345.140625 480.789063 342.679688 483.199219 339.84375 C 487.730469 334.507813 489.753906 328.515625 490.46875 321.613281 C 490.875 317.710938 491.121094 313.785156 491.433594 309.875 C 491.6875 306.679688 492.277344 303.175781 490.945313 300.128906 C 488.234375 293.925781 482.289063 296.273438 478.355469 299.703125 C 467.105469 309.503906 459.320313 323.34375 456.375 337.9375 C 454.742188 346.011719 455.566406 354.257813 454.214844 362.320313 C 452.898438 370.179688 448.84375 377.179688 444.722656 383.871094 C 440.609375 390.550781 436.644531 397.183594 433.628906 404.449219 C 430.554688 411.859375 428.296875 419.585938 426.578125 427.414063 C 423.125 443.183594 421.847656 459.304688 420.335938 475.34375 C 418.828125 491.375 417.460938 508.003906 411.984375 523.269531 C 409.425781 530.414063 405.730469 537.441406 400.246094 542.789063 C 395.144531 547.769531 387.390625 551.796875 380.054688 550.847656 C 373.84375 550.046875 371.773438 543.105469 367.539063 539.417969 C 365.367188 537.527344 362.859375 536.0625 360.144531 535.101563 C 356.488281 533.808594 352.746094 534.386719 349.074219 533.460938 C 345.042969 532.449219 342.515625 528.136719 340.011719 525.113281 C 337.007813 521.484375 333.996094 517.859375 330.992188 514.226563 C 325.621094 507.734375 320.316406 500.964844 319.605469 492.25 C 318.992188 484.683594 321.046875 477.175781 320.511719 469.601563 C 320.199219 465.191406 319.109375 459.382813 314.058594 458.164063 C 307.457031 456.578125 303.339844 463.023438 299.046875 466.707031 C 293.074219 471.835938 285.9375 476.164063 278.433594 478.621094 C 272.71875 480.488281 266.390625 480.988281 261.449219 484.726563 C 256.671875 488.339844 254.367188 494.035156 254.03125 499.894531 C 253.640625 506.757813 255.691406 513.609375 258.175781 519.925781 C 261.113281 527.386719 264.652344 534.597656 268.527344 541.609375 C 270.433594 545.066406 272.402344 548.496094 274.460938 551.863281 C 275.898438 554.222656 277.613281 556.625 280.363281 557.535156 C 285.503906 559.238281 288.101563 554.363281 288.136719 549.976563 C 288.167969 546.363281 287.300781 542.683594 286.871094 539.117188 C 286.3125 534.46875 285.855469 529.8125 285.464844 525.148438 C 284.796875 517.230469 283.769531 509.085938 284.191406 501.132813 C 284.382813 497.625 284.945313 493.988281 286.589844 490.839844 C 288.578125 487.042969 293.453125 482.421875 298.117188 484.863281 C 301.40625 486.589844 301.742188 491.113281 301.773438 494.367188 C 301.808594 498.347656 301.546875 502.347656 301.417969 506.328125 C 300.84375 524.089844 300.285156 541.851563 299.585938 559.609375 C 299.261719 567.945313 299.050781 576.351563 300.292969 584.628906 C 301.503906 592.703125 304.089844 600.414063 306.382813 608.222656 C 311.371094 625.207031 314.203125 642.3125 315.328125 659.960938 C 316.433594 677.355469 316.75 694.863281 318.835938 712.179688 C 319.796875 720.152344 321.199219 728.085938 323.445313 735.800781 C 325.515625 742.914063 328.671875 749.308594 332.203125 755.789063 C 336.023438 762.796875 339.734375 770.183594 340.515625 778.257813 C 340.898438 782.179688 340.429688 786.304688 338.117188 789.613281 C 335.195313 793.804688 330.484375 794.347656 325.753906 794.289063 C 317.027344 794.175781 308.292969 793.839844 299.566406 793.613281 C 291.941406 793.414063 281.660156 793.398438 281.886719 783.09375 C 281.976563 779.027344 283.734375 775.144531 284.390625 771.160156 C 285.0625 767.066406 284.980469 762.90625 285.453125 758.796875 C 286.425781 750.359375 290.261719 742.464844 290.507813 733.917969 C 290.726563 726.199219 286.257813 719.933594 285.523438 712.386719 C 285.175781 708.828125 285.011719 705.203125 284 701.753906 C 283.015625 698.398438 281.257813 695.390625 279.34375 692.488281 C 277.390625 689.53125 275.25 686.675781 273.652344 683.5 C 271.703125 679.621094 270.640625 675.375 269.972656 671.109375 C 268.820313 663.757813 268.886719 656.265625 267.597656 648.929688 C 265.816406 638.835938 259.714844 623.960938 247.328125 623.820313 C 241.730469 623.753906 238.253906 627.609375 236.230469 632.402344 C 233.726563 638.351563 232.164063 644.246094 225.1875 646.222656 C 218.074219 648.234375 210.210938 646.277344 203.21875 644.683594 C 195.144531 642.84375 187.199219 640.4375 179.453125 637.5 C 171.816406 634.601563 164.585938 631.351563 157.617188 627.09375 C 154.53125 625.207031 151.304688 623.238281 149.679688 619.855469 C 147.628906 615.582031 148.429688 610.753906 151.046875 606.9375 C 155.023438 601.136719 160.398438 597.339844 162.472656 590.289063 C 164.578125 583.128906 164.476563 575.496094 166.238281 568.242188 C 170.144531 552.210938 178.761719 537.878906 188.296875 524.601563 C 192.574219 518.644531 196.628906 512.03125 201.566406 506.605469 C 207.476563 500.109375 215.675781 498.238281 223.621094 502.386719 C 235.984375 508.839844 239.722656 524.167969 242.535156 536.664063 C 244.5 545.378906 246.417969 554.152344 247.277344 563.058594 C 248.140625 571.96875 247.628906 580.785156 246.28125 589.621094 C 243.910156 605.164063 239.21875 621.597656 242.175781 637.390625 C 242.894531 641.214844 244.589844 644.816406 243.460938 648.746094 C 242.347656 652.609375 239.515625 656.242188 236.863281 659.179688 C 232.617188 663.875 227.523438 668.164063 226.058594 674.621094 C 224.367188 682.054688 227.234375 690.054688 224.167969 697.222656 C 221.414063 703.65625 215.0625 707.429688 212.683594 714.152344 C 210.046875 721.59375 214.089844 730.175781 210.441406 737.195313 C 208.816406 740.332031 205.921875 742.589844 203.007813 744.457031 C 199.734375 746.554688 196.023438 748.949219 192.203125 749.808594 C 182.367188 752.015625 180.433594 739.394531 176.21875 733.453125 C 172.757813 728.578125 167.953125 724.804688 162.695313 722.03125 C 148.566406 714.578125 132.59375 715.222656 117.398438 711.765625 C 115.277344 711.285156 112.039063 709.269531 115.234375 707.132813 C 116.773438 706.101563 118.796875 705.59375 120.535156 705.027344 C 124.621094 703.695313 128.78125 702.585938 132.992188 701.71875 C 141.109375 700.046875 149.40625 699.285156 157.691406 699.480469 C 165.960938 699.671875 174.195313 700.835938 182.171875 703.046875 C 189.523438 705.082031 197.40625 708.085938 202.386719 714.171875 C 206.257813 718.90625 209.066406 727.148438 205.570313 732.804688 C 201.671875 739.117188 192.664063 741.179688 185.777344 741.054688 C 177.667969 740.90625 169.917969 737.824219 162.410156 735.050781 C 154.589844 732.164063 146.722656 729.8125 138.441406 728.671875 C 123.351563 726.59375 107.019531 727.746094 92.75 733.332031 C 87.046875 735.5625 81.546875 738.65625 77.351563 743.1875 C 72.996094 747.890625 70.476563 753.988281 69.136719 760.195313 C 67.640625 767.144531 67.570313 774.351563 68.148438 781.410156 C 68.546875 786.308594 68.367188 793.507813 71.738281 797.484375 C 75.855469 802.347656 81.394531 797.707031 85.109375 794.910156 C 91.234375 790.300781 97.585938 785.953125 104.320313 782.273438 C 111.617188 778.285156 119.261719 775.582031 127.179688 773.132813 C 131.191406 771.890625 135.289063 770.703125 139.507813 770.480469 C 143.855469 770.25 148.140625 771.25 152.21875 772.683594 C 167.28125 777.980469 178.554688 790.082031 187.261719 803.023438 C 190.109375 807.261719 193.152344 815.003906 199.035156 815.667969 C 205.054688 816.347656 208.105469 810.078125 207.6875 804.917969 C 207.140625 798.132813 203.460938 790.980469 200.441406 784.96875 C 197.246094 778.59375 193.390625 772.554688 188.886719 767.023438 C 179.917969 756.007813 168.171875 747.226563 154.746094 742.449219 C 139.484375 737.019531 123.527344 738.339844 107.917969 741.433594 C 100.890625 742.824219 93.773438 745.132813 86.605469 745.617188 C 81.027344 745.996094 72.648438 743.996094 74.628906 736.539063 C 76.394531 729.902344 82.3125 725.761719 87.574219 722.054688 C 92.882813 718.3125 96.578125 714.152344 97.386719 707.492188 C 98.195313 700.847656 97.828125 694.539063 100.074219 688.105469 C 102.140625 682.1875 105.410156 676.753906 108.898438 671.578125 C 115.691406 661.488281 123.816406 652.070313 128.5 640.726563 C 130.9375 634.824219 131.941406 628.816406 132.027344 622.449219 C 132.085938 618.347656 131.917969 614.195313 132.609375 610.136719 C 133.289063 606.140625 134.964844 602.621094 137.140625 599.238281 C 141.152344 593.011719 145.390625 587.484375 147.660156 580.320313 C 150.042969 572.792969 151.328125 565.003906 154.074219 557.574219 C 159.453125 543.039063 168.066406 529.875 177.855469 517.945313 C 183.101563 511.550781 188.648438 505.378906 194.40625 499.445313 C 199.933594 493.753906 205.375 488.402344 212.480469 484.738281 C 218.871094 481.441406 225.59375 478.847656 231.964844 475.507813 C 239.035156 471.804688 245.78125 467.539063 252.382813 463.058594 C 259.316406 458.351563 266.101563 453.429688 273.046875 448.734375 C 280.171875 443.914063 287.613281 439.871094 295.019531 435.527344 C 298.339844 433.582031 302.023438 432.777344 305.613281 431.4375 C 309.078125 430.148438 312.472656 428.644531 315.703125 426.847656 C 318.851563 425.097656 321.542969 422.679688 324.628906 420.894531 C 329.347656 418.171875 330.753906 424.066406 331.277344 427.433594 C 333.824219 443.847656 331.382813 461.292969 338.070313 476.914063 C 341.074219 483.929688 345.589844 490.246094 348.136719 497.464844 C 350.671875 504.640625 350.128906 512.792969 353.59375 519.636719 C 356.28125 524.945313 361.191406 528.445313 365.816406 531.945313 C 371.867188 536.527344 377.882813 541.625 382.480469 547.707031 C 387.519531 554.371094 389.359375 562.027344 391.558594 569.917969 C 393.492188 576.863281 396.328125 583.484375 400.269531 589.539063 C 404.050781 595.34375 408.707031 600.570313 414.066406 604.964844 C 420.199219 609.992188 427.175781 614.21875 429.375 622.351563 C 431.300781 629.476563 430.472656 637.476563 430.476563 644.78125 C 430.480469 653.714844 430.332031 662.648438 430.183594 671.578125 C 429.898438 688.75 429.511719 705.925781 429.460938 723.101563 C 429.40625 740.457031 429.457031 757.996094 427.730469 775.285156 C 427.355469 779.023438 427.207031 784.4375 424.996094 787.675781 C 422.648438 791.121094 417.183594 791.167969 413.464844 791.195313 C 409.367188 791.230469 405.21875 790.664063 401.222656 789.789063 C 395.546875 788.550781 395.898438 783.289063 395.507813 778.515625 C 394.800781 769.875 394.71875 761.1875 395.226563 752.535156 C 395.707031 744.273438 397.027344 736.152344 398.082031 727.960938 C 398.828125 722.160156 400.308594 710.539063 408.71875 712.503906 C 411.277344 713.105469 413.835938 714.984375 414.527344 717.628906 C 415.597656 721.726563 411.640625 724.695313 407.851563 724.132813 C 400.664063 723.070313 398.886719 714.800781 398.679688 708.773438 C 398.367188 699.664063 399.902344 690.59375 401.171875 681.605469 C 402.402344 672.882813 403.542969 664.144531 404.726563 655.410156 C 405.71875 648.097656 405.824219 640.03125 408.253906 633.027344 C 409.414063 629.695313 411.734375 626.257813 415.648438 626.164063 C 419.402344 626.074219 423.222656 629.328125 421.90625 633.308594 C 420.460938 637.691406 415.457031 638.242188 412.851563 634.554688 C 410.15625 630.738281 411.644531 625.964844 412.796875 621.875 C 417.292969 605.945313 426.46875 591.816406 431.671875 576.121094 C 436.785156 560.710938 440.539063 544.246094 442.824219 528.171875 C 443.871094 520.820313 444.101563 513.269531 442.125 506.046875 C 441.179688 502.59375 438.671875 499 438.644531 495.40625 C 438.613281 491.054688 441.503906 488.53125 444.585938 485.996094 C 449.769531 481.730469 453.199219 477.6875 454.203125 470.855469 C 455.324219 463.230469 454.792969 455.21875 455.078125 447.523438 C 455.402344 438.832031 455.527344 429.828125 456.902344 421.226563 C 457.175781 419.515625 457.5625 417.25 458.636719 415.84375 C 461.171875 412.53125 464.570313 414.636719 466.8125 416.816406 C 469.820313 419.738281 472.183594 423.382813 474.234375 427.011719 C 478.34375 434.296875 481.6875 442.0625 485.316406 449.589844 C 489.128906 457.503906 492.9375 465.414063 496.746094 473.328125 C 504.410156 489.238281 512.71875 504.996094 519.671875 521.234375 C 523.09375 529.222656 525.679688 538.097656 523.988281 546.835938 C 522.570313 554.152344 517.765625 559.53125 513.40625 565.289063 C 509.0625 571.027344 506.378906 576.984375 505.875 584.226563 C 505.320313 592.140625 506.894531 600.027344 506.515625 607.945313 C 506.347656 611.453125 505.796875 615.109375 504.085938 618.234375 C 501.949219 622.132813 497.449219 625.484375 492.816406 623.820313 C 485.140625 621.0625 488.175781 608.945313 488.773438 603.039063 C 489.65625 594.332031 490.53125 585.621094 491.035156 576.882813 C 491.472656 569.347656 491.851563 561.710938 490.78125 554.210938 C 489.828125 547.523438 487.609375 541.015625 483.574219 535.546875 C 481.65625 532.941406 477.664063 530.234375 477.707031 526.714844 C 477.742188 523.792969 480.890625 522.195313 482.589844 520.21875 C 486.671875 515.46875 485.449219 508.890625 484.578125 503.230469 C 483.175781 494.128906 482.039063 484.988281 481.1875 475.820313 C 480.367188 466.960938 479.792969 458.078125 479.507813 449.183594 C 479.300781 442.804688 477.765625 429.597656 488.160156 432.429688 C 492.023438 433.484375 495.617188 435.59375 499.171875 437.382813 C 502.367188 438.988281 505.738281 439.929688 509.132813 441.027344 C 517.265625 443.652344 525.222656 447.109375 533.1875 450.214844 C 536.523438 451.515625 540.058594 452.890625 542.660156 455.445313 C 545.894531 458.621094 546.414063 463.207031 546 467.511719 C 545.28125 474.960938 541.203125 481.394531 538.6875 488.296875 C 536.058594 495.503906 536.585938 502.859375 536.683594 510.410156 C 536.796875 519.066406 536.667969 527.652344 537.457031 536.289063 C 539.011719 553.324219 543.972656 569.628906 546.472656 586.492188 C 549.042969 603.839844 545.644531 620.917969 546.242188 638.28125 C 546.382813 642.425781 546.695313 646.570313 546.617188 650.722656 C 546.535156 655.042969 545.324219 659.0625 544.816406 663.320313 C 543.832031 671.558594 545.328125 679.886719 544.738281 688.152344 C 544.105469 696.957031 540.789063 703.855469 534.035156 709.570313 C 527.453125 715.140625 520.371094 720.195313 513.539063 725.453125 C 507.117188 730.394531 500.800781 736.246094 493.683594 740.164063 C 490.039063 742.171875 485.648438 743.410156 481.542969 742.136719 C 477.007813 740.734375 474.519531 736.289063 473.363281 731.976563 C 471.089844 723.472656 471.023438 713.96875 470.320313 705.21875 C 469.625 696.546875 469.0625 687.863281 468.535156 679.179688 C 468.003906 670.484375 467.507813 661.785156 466.9375 653.09375 C 466.460938 645.792969 463.441406 633.886719 473.449219 632.179688 C 481.039063 630.882813 487.582031 636.195313 494.789063 637.460938 C 501.324219 638.609375 507.550781 636.355469 513.410156 633.660156 C 520.617188 630.347656 527.296875 627.023438 535.335938 626.316406 C 539.222656 625.972656 543.140625 626.046875 547.039063 626.195313 C 551.054688 626.351563 556.410156 625.945313 559.632813 628.804688 C 562.492188 631.339844 562.480469 635.542969 562.109375 639.03125 C 561.636719 643.523438 560.5625 647.984375 559.789063 652.429688 C 558.324219 660.851563 557.007813 669.300781 555.988281 677.789063 C 553.949219 694.714844 553.109375 711.855469 554.761719 728.855469 C 556.355469 745.265625 560.457031 760.824219 567.117188 775.886719 C 569.863281 782.105469 571.925781 789.914063 576.609375 795.027344 C 581.285156 800.136719 588.222656 799.878906 594.605469 799.804688 C 602.296875 799.714844 610.96875 800.003906 618.425781 797.824219 C 624.722656 795.984375 626.867188 791.765625 627.542969 785.597656 C 627.972656 781.667969 628.050781 777.636719 629.183594 773.820313 C 630.4375 769.597656 633.183594 766.925781 635.730469 763.511719 C 640.265625 757.421875 637.339844 749.667969 640.660156 743.050781 C 644.167969 736.054688 651.003906 730.488281 657.429688 726.289063 C 664.351563 721.769531 672.253906 718.597656 680.546875 717.984375 C 688.527344 717.394531 697.03125 719.058594 703.535156 723.929688 C 710.882813 729.433594 712.671875 737.363281 710.621094 746.058594 C 709.683594 750.027344 708.378906 753.941406 706.96875 757.765625 C 705.367188 762.113281 703.757813 768.816406 697.78125 767.617188 C 694.160156 766.890625 690.738281 765.191406 687.117188 764.355469 C 683.199219 763.449219 679.164063 762.949219 675.144531 762.859375 C 671.503906 762.78125 667.867188 763.058594 664.273438 763.644531 C 659.890625 764.359375 654.644531 766.941406 650.222656 765.585938 C 646.632813 764.488281 644.417969 761 641.71875 758.628906 C 639.214844 756.429688 636.328125 754.832031 633.265625 753.550781 C 626.6875 750.792969 619.402344 749.585938 613.347656 745.65625 C 610.003906 743.488281 607.386719 740.683594 606.542969 736.691406 C 605.808594 733.21875 606.046875 729.585938 604.832031 726.207031 C 602.984375 721.066406 597.570313 718.605469 595.414063 713.761719 C 592.011719 706.125 602.496094 699.359375 607.890625 696.078125 C 621.730469 687.648438 638.261719 685.714844 654.164063 686.445313 C 658.351563 686.640625 662.535156 686.992188 666.699219 687.488281 C 669.863281 687.867188 674.738281 688.371094 676.539063 691.480469 C 679.523438 696.632813 672.386719 699.214844 668.550781 699.375 C 664.707031 699.535156 660.921875 699.140625 657.070313 699.554688 C 650.328125 700.277344 643.761719 702.269531 637.753906 705.421875 C 634.835938 706.953125 632.082031 708.765625 629.5 710.816406 C 626.296875 713.359375 623.570313 716.625 620.074219 718.78125 C 616.152344 721.195313 611.597656 721.636719 608.160156 718.191406 C 605.078125 715.109375 603.804688 710.421875 602.722656 706.335938 C 600.726563 698.785156 599.167969 691.636719 594.835938 685.007813 C 590.601563 678.523438 585.683594 672.660156 582.269531 665.65625 C 578.882813 658.707031 576.628906 651.246094 575.117188 643.679688 C 573.453125 635.359375 572.71875 626.882813 572.382813 618.414063 C 572.230469 614.589844 572.292969 610.75 572.078125 606.925781 C 571.867188 603.167969 571.234375 599.445313 573.363281 596.09375 C 575.082031 593.386719 577.417969 591.0625 579.335938 588.484375 C 582.164063 584.675781 584.964844 580.847656 587.78125 577.03125 C 593.03125 569.914063 598.28125 562.800781 603.53125 555.683594 C 607.929688 549.71875 612.613281 543.777344 615.425781 536.851563 C 616.796875 533.480469 617.324219 529.644531 619.195313 526.5 C 620.773438 523.839844 624.601563 521.367188 627.820313 522.449219 C 631.367188 523.636719 631.871094 529.226563 633.003906 532.28125 C 634.335938 535.886719 636.417969 539.210938 638.460938 542.453125 C 640.53125 545.742188 642.753906 549.054688 643.410156 552.972656 C 644.246094 557.929688 641.902344 561.550781 638.003906 564.277344 C 631.796875 568.621094 625.304688 572.546875 619.1875 577.042969 C 613.0625 581.542969 608.238281 587.253906 603.03125 592.730469 C 597.699219 598.339844 591.765625 603.972656 584.398438 606.75 C 580.96875 608.042969 576.941406 608.984375 573.308594 608.003906 C 568.910156 606.820313 566.703125 602.957031 564.710938 599.1875 C 557.292969 585.179688 554.78125 569.175781 552.917969 553.621094 C 550.828125 536.175781 549.953125 518.433594 553.113281 501.050781 C 555.664063 487.015625 562.230469 466.46875 579.976563 466.800781 C 588.011719 466.949219 594.265625 472.988281 599.476563 478.4375 C 605.296875 484.523438 610.960938 490.777344 616.5 497.125 C 627.53125 509.761719 638.167969 522.878906 647.589844 536.769531 C 652.261719 543.660156 655.175781 550.496094 656.664063 558.683594 C 657.230469 561.796875 657.808594 564.925781 659.023438 567.863281 C 660.394531 571.1875 662.617188 573.667969 665.007813 576.292969 C 668.160156 579.757813 669.652344 582.984375 669.523438 587.734375 C 669.414063 591.640625 668.96875 595.40625 669.667969 599.296875 C 670.929688 606.324219 674.695313 612.632813 678.457031 618.582031 C 682.695313 625.285156 686.226563 631.902344 688.175781 639.65625 C 690.046875 647.109375 690.632813 654.816406 690.710938 662.484375 C 690.863281 678.101563 689.644531 693.769531 689.339844 709.390625 C 688.992188 727.289063 688.644531 745.191406 688.296875 763.089844 C 688.140625 771.179688 688.4375 779.429688 687.550781 787.480469 C 686.71875 795.003906 683.886719 802.414063 676.097656 804.972656 C 668.597656 807.4375 659.636719 806.304688 651.867188 806.300781 C 642.804688 806.292969 633.742188 806.289063 624.683594 806.28125 C 606.558594 806.273438 588.433594 806.261719 570.308594 806.25 C 498.777344 806.207031 427.242188 806.160156 355.707031 806.117188 C 320.117188 806.09375 284.53125 806.085938 248.941406 806.03125 C 231.015625 806.003906 213.089844 805.960938 195.164063 806.144531 C 177.300781 806.324219 159.433594 806.914063 141.566406 806.597656 C 133.410156 806.453125 124.667969 806.808594 116.625 805.3125 C 108.367188 803.773438 106.070313 797.121094 104.84375 789.703125 C 103.453125 781.292969 104.246094 772.472656 104.398438 763.988281 C 104.550781 755.347656 104.703125 746.707031 104.855469 738.066406 C 105.164063 720.785156 105.46875 703.503906 105.777344 686.222656 C 106.074219 669.441406 107.308594 652.703125 107.671875 635.921875 C 107.703125 634.3125 105.203125 634.316406 105.171875 635.921875 "/>
</g>


</svg>
