<?xml version="1.0" encoding="UTF-8" standalone="no"?>
<svg
   xmlns:dc="http://purl.org/dc/elements/1.1/"
   xmlns:cc="http://creativecommons.org/ns#"
   xmlns:rdf="http://www.w3.org/1999/02/22-rdf-syntax-ns#"
   xmlns:svg="http://www.w3.org/2000/svg"
   xmlns="http://www.w3.org/2000/svg"
   viewBox="0 0 1042.5107 1307.5439"
   height="1307.5439"
   width="1042.5107"
   xml:space="preserve"
   id="svg2"
   version="1.1"><metadata
     id="metadata8"><rdf:RDF><cc:Work
         rdf:about=""><dc:format>image/svg+xml</dc:format><dc:type
           rdf:resource="http://purl.org/dc/dcmitype/StillImage" /></cc:Work></rdf:RDF></metadata><defs
     id="defs6"><clipPath
       id="clipPath18"
       clipPathUnits="userSpaceOnUse"><path
         id="path16"
         d="M 0,980.658 H 781.883 V 0 H 0 Z" /></clipPath></defs><g
     transform="matrix(1.3333333,0,0,-1.3333333,0,1307.544)"
     id="g10"><g
       id="g12"><g
         clip-path="url(#clipPath18)"
         id="g14"><g
           transform="translate(437.5836,685.2021)"
           id="g20"><path
             id="path22"
             style="fill:#373535;fill-opacity:1;fill-rule:nonzero;stroke-width:3"
             d="m 0,0 c -4.137,0.917 -8.311,1.857 -12.574,1.762 -4.402,-0.099 -8.976,-1.225 -13.309,0.027 -4.536,1.311 -6.826,5.447 -7.414,9.919 -0.607,4.623 1.12,8.521 5.186,10.861 7.545,4.341 17.637,3.379 25.903,2.123 4.285,-0.651 8.7,-1.962 11.991,-4.916 3.556,-3.192 4.705,-7.704 4.792,-12.336 0.076,-4.08 -0.059,-8.758 -1.906,-12.476 -1.962,-3.949 -6.323,-5.575 -10.043,-7.41 -5.397,-2.661 -11.739,-6.989 -8.968,-13.96 1.408,-3.542 5.215,-5.502 4.481,-9.801 -0.584,-3.416 -3.291,-6.249 -5.674,-8.577 -5.208,-5.09 -10.688,-10.291 -17.071,-13.859 -9.055,-5.061 -19.058,-5.819 -29.169,-4.265 -5.017,0.771 -9.918,2.185 -14.497,4.389 -4.082,1.964 -8.239,4.529 -10.001,8.915 -0.513,-0.512 -1.025,-1.025 -1.538,-1.538 4.921,-0.83 9.246,0.915 13.756,2.683 2.223,0.871 4.497,1.689 6.883,1.961 2.988,0.341 5.101,-0.665 7.768,-1.817 1.351,-0.584 2.741,-0.929 4.216,-0.627 2.308,0.472 4.228,2.171 6.614,2.343 2.48,0.179 4.519,-1.284 6.601,-2.422 1.874,-1.023 3.844,-1.859 5.916,-2.394 4.207,-1.087 8.205,-0.271 12.424,-0.663 6.566,-0.61 5.233,-7.095 2.814,-11.173 -4.469,-7.533 -12.5,-11.95 -20.995,-13.24 -3.021,-0.458 -6.744,-0.854 -8.534,-3.714 -2.179,-3.48 0.201,-7.417 2.33,-10.239 2.423,-3.21 8.081,-9.038 4.689,-13.211 -3.243,-3.99 -9.6,-3.942 -14.241,-3.815 -5.297,0.144 -10.78,0.726 -15.847,2.343 -4.85,1.547 -9.394,4.11 -13.759,6.693 -8.453,5.003 -17.397,11.045 -23.717,18.668 -7.195,8.68 -6.431,20.335 -7.586,30.926 -0.514,4.71 -0.769,9.66 -1.943,14.263 -0.484,1.897 -1.28,3.583 -2.351,5.216 -0.668,1.018 -1.498,2.043 -1.848,3.228 -0.475,1.605 0.084,3.202 0.494,4.748 1.17,4.412 0.528,8.677 -1.13,12.879 -1.416,3.588 -3.13,7.443 -5.5,10.517 -1.948,2.527 -4.832,4.256 -8.091,3.257 -3.695,-1.134 -4.779,-4.634 -5.062,-8.106 -0.381,-4.67 -1.174,-9.738 -0.521,-14.399 0.612,-4.369 3.286,-8.166 5.764,-11.692 2.829,-4.025 5.153,-7.865 7.157,-12.36 1.513,-3.396 3.542,-6.623 6.593,-8.833 3.511,-2.542 7.888,-2.997 11.92,-4.253 4.434,-1.382 8.595,-3.708 12.12,-6.73 3.497,-3 6.239,-6.614 8.398,-10.67 2.03,-3.816 3.747,-7.852 6.689,-11.087 6.209,-6.826 17.234,-7.828 22.379,-15.716 2.531,-3.879 2.703,-9.81 -1.797,-12.317 -3.949,-2.2 -8.968,-1.013 -13.257,-1.28 -7.652,-0.478 -12.672,-5.808 -11.438,-13.54 0.716,-4.484 2.541,-8.852 3.868,-13.179 1.531,-4.992 3.064,-9.981 4.85,-14.889 3.173,-8.717 6.379,-17.466 10.565,-25.758 2.139,-4.236 4.541,-8.355 7.363,-12.176 3.065,-4.151 6.548,-8.085 8.483,-12.941 3.718,-9.333 1.597,-19.922 -3.535,-28.272 -2.544,-4.14 -5.79,-7.811 -9.396,-11.055 -3.076,-2.767 -6.649,-5.094 -9.178,-8.418 -5.665,-7.446 -0.797,-16.733 2.651,-24.096 2.036,-4.349 4.283,-8.652 7.087,-12.561 2.774,-3.865 5.978,-7.523 7.915,-11.914 3.817,-8.656 4.244,-18.689 3.669,-27.996 -0.602,-9.736 -2.563,-19.335 -5.589,-28.601 -3.204,-9.809 -7.545,-19.207 -12.412,-28.294 -4.211,-7.862 -9.922,-15.756 -10.872,-24.866 -1.045,-10.018 3.08,-20.176 5.724,-29.655 1.306,-4.682 2.863,-9.206 4.758,-13.681 2.169,-5.121 4.119,-10.228 3.739,-15.892 -0.371,-5.54 -2.51,-10.671 -3.679,-16.043 -0.83,-3.815 -1.13,-7.971 0.816,-11.508 3.834,-6.967 13.664,-7.372 20.625,-7.565 10.884,-0.301 21.764,0.597 32.661,0.299 10.867,-0.296 21.719,-0.987 32.584,-1.316 10.82,-0.328 21.679,-0.296 32.45,0.9 8.889,0.987 18.458,2.344 26.662,6.085 6.156,2.808 10.781,7.793 12.159,14.528 1.957,9.558 -1.067,19.357 -2.695,28.724 -1.529,8.808 -1.808,18.532 3.708,26.077 0.95,1.3 -1.218,2.549 -2.159,1.262 -12.185,-16.663 1.928,-36.662 -1.129,-54.676 -1.309,-7.708 -6.916,-12.453 -14.044,-14.89 -9.637,-3.295 -20.088,-4.632 -30.207,-5.278 -21.71,-1.385 -43.416,1.09 -65.125,1.22 -10.477,0.062 -21.101,-1.251 -31.539,0.022 -4.164,0.509 -9.245,1.614 -11.584,5.493 -2.725,4.516 -0.791,10.215 0.543,14.863 1.381,4.804 2.753,9.785 2.484,14.836 -0.244,4.606 -1.903,8.901 -3.68,13.104 -4.024,9.523 -6.951,19.779 -9.32,29.843 -1.222,5.193 -2.004,10.7 -0.762,15.964 1.111,4.709 3.423,9.007 5.774,13.195 4.792,8.541 9.36,17.17 13.096,26.234 7.072,17.157 11.478,36.482 9.119,55.102 -0.551,4.347 -1.516,8.647 -3.169,12.713 -1.677,4.124 -4.373,7.603 -7.014,11.142 -2.878,3.858 -5.272,7.937 -7.405,12.251 -2.212,4.47 -4.479,9.222 -5.643,14.095 -1.296,5.426 1.12,9.281 5.07,12.753 3.411,2.998 6.972,5.717 10.023,9.112 5.762,6.41 9.989,14.225 10.976,22.874 1.113,9.753 -2.523,17.768 -8.364,25.336 -6.013,7.788 -10.494,16.315 -14.216,25.407 -3.706,9.051 -6.965,18.285 -9.833,27.633 -1.397,4.549 -3.17,9.096 -4.198,13.745 -0.999,4.521 0.029,9.143 4.779,10.959 6.907,2.642 17.147,-2.14 21.895,5.604 4.2,6.848 -0.951,14.433 -6.647,18.286 -3.704,2.508 -7.917,4.117 -11.734,6.43 -4.361,2.644 -7.069,6.248 -9.383,10.716 -3.978,7.678 -8.399,14.282 -15.971,18.846 -3.544,2.137 -7.352,3.507 -11.352,4.506 -5.043,1.26 -9.104,2.965 -11.917,7.572 -2.297,3.759 -3.51,7.961 -5.994,11.645 -2.672,3.964 -6.125,7.824 -7.763,12.38 -1.693,4.709 -0.529,10.382 -0.192,15.257 0.186,2.683 0.278,6.044 3.324,7.079 2.646,0.899 4.706,-1.196 6.037,-3.187 2.458,-3.672 4.613,-8.165 5.66,-12.444 0.663,-2.71 0.662,-5.257 -0.052,-7.947 -0.497,-1.875 -1.054,-3.741 -0.585,-5.686 0.45,-1.867 1.661,-3.301 2.644,-4.903 1.291,-2.103 1.847,-4.433 2.208,-6.851 0.836,-5.602 1.412,-11.271 1.913,-16.911 0.832,-9.356 1.181,-18.518 7.41,-26.119 6.003,-7.327 14.463,-13.211 22.458,-18.158 8.231,-5.092 16.405,-8.931 26.088,-10.109 7.073,-0.862 19.033,-2.171 23.622,4.992 2.078,3.243 0.503,7.262 -1.339,10.231 -1.906,3.071 -9.059,9.327 -5.758,13.115 2.328,2.671 8.137,2.275 11.336,3.204 3.729,1.082 7.291,2.809 10.395,5.145 4.885,3.676 11.619,11.212 9.733,17.976 -0.886,3.175 -3.739,4.849 -6.857,5.178 -4.426,0.467 -8.571,-0.477 -12.975,0.851 -3.944,1.189 -7.464,4.648 -11.704,4.724 -1.711,0.031 -3.283,-0.594 -4.819,-1.278 -1.113,-0.496 -2.281,-1.217 -3.529,-1.247 -1.42,-0.035 -2.723,0.859 -3.956,1.433 -9.465,4.408 -17.51,-5.181 -26.893,-3.597 -0.823,0.139 -1.931,-0.558 -1.538,-1.538 3.169,-7.887 12.442,-11.698 20.11,-13.764 9.475,-2.553 20.348,-3.312 29.758,-0.118 8.611,2.923 15.037,8.539 21.671,14.49 4.78,4.286 12.245,10.747 9.228,18.036 -0.766,1.85 -2.27,3.117 -3.344,4.759 -1.651,2.525 -1.612,5.603 0.435,7.888 2.986,3.334 7.784,4.656 11.574,6.805 3.733,2.117 6.295,5.12 7.357,9.319 1.111,4.388 1.305,9.382 0.703,13.854 -1.256,9.303 -8.645,14.416 -17.425,15.952 -8.854,1.548 -19.453,2.469 -27.75,-1.683 -3.941,-1.972 -6.826,-5.169 -7.425,-9.644 -0.593,-4.437 0.715,-9.662 3.764,-13.014 3.13,-3.44 8.044,-4.048 12.441,-3.842 2.992,0.14 5.962,0.609 8.964,0.475 3.373,-0.15 6.675,-0.927 9.959,-1.655 C 0.903,-2.758 1.572,-0.349 0,0" /></g><g
           transform="translate(440.5093,689.6713)"
           id="g24"><path
             id="path26"
             style="fill:#373535;fill-opacity:1;fill-rule:nonzero;stroke-width:3"
             d="M 0,0 C 0.516,-0.448 1.01,-0.919 1.471,-1.424 1.668,-1.641 1.859,-1.864 2.044,-2.092 2.097,-2.157 2.148,-2.222 2.2,-2.288 2.131,-2.2 2.141,-2.214 2.23,-2.332 2.326,-2.467 2.424,-2.6 2.517,-2.737 2.701,-3.008 2.877,-3.286 3.039,-3.572 3.097,-3.673 3.152,-3.775 3.202,-3.881 3.091,-3.646 3.251,-4.056 3.265,-4.11 3.282,-4.182 3.297,-4.253 3.309,-4.326 3.288,-4.175 3.284,-4.174 3.296,-4.321 3.298,-4.393 3.297,-4.466 3.292,-4.538 c 0.027,0.152 0.027,0.156 0,0.01 C 3.271,-4.599 3.106,-4.961 3.231,-4.746 3.196,-4.813 3.157,-4.879 3.115,-4.942 3.181,-4.865 3.188,-4.855 3.136,-4.914 3.088,-4.97 2.82,-5.191 3.067,-5.013 2.963,-5.087 2.853,-5.144 2.741,-5.208 3.011,-5.054 2.678,-5.226 2.592,-5.25 2.466,-5.285 2.338,-5.309 2.209,-5.331 2.546,-5.274 2.112,-5.329 2.044,-5.332 1.943,-5.335 1.842,-5.335 1.741,-5.334 1.474,-5.329 1.206,-5.304 0.94,-5.271 1.286,-5.314 0.862,-5.255 0.797,-5.244 0.659,-5.22 0.521,-5.193 0.384,-5.167 c -0.337,0.065 -0.673,0.133 -1.008,0.202 -0.769,0.158 -1.535,0.326 -2.302,0.496 -0.637,0.14 -1.383,-0.192 -1.537,-0.873 -0.144,-0.633 0.19,-1.387 0.873,-1.538 1.266,-0.28 2.535,-0.579 3.816,-0.79 1.034,-0.171 2.154,-0.287 3.17,0.052 1.279,0.428 2.183,1.458 2.364,2.806 0.176,1.304 -0.466,2.459 -1.191,3.49 -0.802,1.145 -1.746,2.174 -2.8,3.09 C 1.274,2.196 0.479,2.289 0,1.768 -0.432,1.298 -0.527,0.458 0,0" /></g><g
           transform="translate(105.17,344.7348)"
           id="g28"><path
             id="path30"
             style="fill:#373535;fill-opacity:1;fill-rule:nonzero;stroke-width:3"
             d="m 0,0 c -0.408,-18.938 -1.673,-37.836 -2.009,-56.781 -0.337,-19.01 -0.674,-38.019 -1.011,-57.029 -0.173,-9.814 -0.504,-19.641 -0.493,-29.458 0.008,-6.984 0.414,-15.057 3.787,-21.374 3.235,-6.058 9.689,-7.342 16.005,-7.741 9.277,-0.586 18.57,-0.833 27.864,-0.876 19.384,-0.09 38.768,0.532 58.152,0.62 19.01,0.087 38.02,0.032 57.031,0.005 38.072,-0.051 76.144,-0.051 114.216,-0.074 76.812,-0.047 153.624,-0.095 230.435,-0.143 19.15,-0.011 38.367,-0.491 57.511,-0.005 6.684,0.168 13.713,1.315 18.218,6.75 3.997,4.821 5.028,11.345 5.415,17.405 1.195,18.738 0.819,37.698 1.184,56.471 0.342,17.584 0.741,35.14 1.471,52.709 0.638,15.363 0.617,31.346 -5.449,45.76 -3.156,7.496 -8.32,13.821 -11.935,21.072 -1.928,3.866 -3.436,8.013 -3.782,12.348 -0.326,4.084 0.634,8.174 0.097,12.248 -1.029,7.784 -8.902,11.717 -11.24,19.013 -1.15,3.589 -1.545,7.372 -2.327,11.046 -0.874,4.104 -2.357,7.962 -4.354,11.651 -4.097,7.572 -9.568,14.513 -14.766,21.35 -5.204,6.843 -10.605,13.533 -16.172,20.084 -5.761,6.78 -11.695,13.412 -17.757,19.925 -5.125,5.506 -10.368,11.672 -17.385,14.8 -14.248,6.353 -27.326,-4.972 -32.581,-17.603 -6.558,-15.761 -7.363,-34.243 -6.553,-51.073 0.798,-16.582 2.692,-33.921 7.467,-49.87 2.137,-7.141 4.937,-14.942 9.492,-20.93 4.118,-5.414 10.681,-6.068 16.897,-4.341 15.549,4.319 23.605,19.25 35.385,28.878 6.552,5.354 13.929,9.648 20.91,14.393 5.402,3.672 8.33,8.793 6.701,15.437 -0.907,3.702 -2.975,6.884 -4.977,10.065 -2.53,4.026 -4.723,7.986 -6.167,12.533 -1.613,5.077 -3.929,10.05 -10.152,8.663 -6.193,-1.382 -8.196,-6.709 -9.89,-12.182 -2.539,-8.199 -7.621,-14.903 -12.653,-21.725 -5.889,-7.983 -11.778,-15.966 -17.667,-23.95 -2.559,-3.468 -5.055,-6.995 -7.681,-10.413 -2.084,-2.714 -4.819,-5.205 -6.196,-8.396 -1.272,-2.946 -0.897,-6.232 -0.696,-9.348 0.268,-4.126 0.202,-8.271 0.366,-12.404 0.331,-8.319 1.053,-16.644 2.611,-24.829 1.553,-8.165 3.97,-16.192 7.617,-23.675 3.576,-7.337 8.846,-13.396 13.151,-20.261 4.731,-7.54 5.484,-16.015 8.372,-24.232 1.989,-5.655 5.64,-11.987 12.458,-11.873 7.972,0.133 13.136,7.893 19.046,12.099 6.547,4.659 14.211,7.736 22.161,8.905 3.917,0.577 7.778,0.448 11.72,0.402 3.367,-0.04 7.013,0.328 9.729,2.536 3.945,3.208 3.668,8.813 -0.535,11.623 -2.205,1.474 -4.896,2.099 -7.481,2.48 -4.603,0.676 -9.295,1.022 -13.938,1.258 -8.871,0.452 -17.833,0.123 -26.553,-1.667 -7.238,-1.486 -14.328,-4.006 -20.72,-7.74 -5.276,-3.083 -12.389,-7.684 -14.567,-13.697 -2.036,-5.62 1.104,-9.808 4.865,-13.659 2.329,-2.385 4.353,-4.638 5.135,-7.969 0.876,-3.735 0.484,-7.726 1.975,-11.326 2.463,-5.944 8.956,-9.24 14.637,-11.386 7.643,-2.885 15.802,-4.367 21.814,-10.336 2.213,-2.198 4.295,-4.713 7.27,-5.906 3.66,-1.468 7.477,-0.405 11.131,0.514 9.126,2.297 18.676,2.424 27.818,0.112 5.629,-1.423 13.242,-6.261 17.794,-0.267 2.262,2.981 3.408,7.182 4.626,10.644 1.47,4.175 2.887,8.458 3.608,12.838 1.133,6.893 -0.238,13.43 -5.014,18.665 -5.064,5.549 -12.448,8.52 -19.781,9.456 -15.459,1.97 -30.319,-5.143 -41.56,-15.309 -5.249,-4.747 -10.114,-10.664 -11.003,-17.923 -0.53,-4.329 0.458,-8.644 -2.106,-12.498 -2.247,-3.379 -5.149,-5.74 -6.678,-9.631 -1.264,-3.216 -1.685,-6.658 -2.021,-10.074 -0.42,-4.295 -0.084,-10.043 -4.152,-12.736 -3.606,-2.388 -8.456,-2.476 -12.603,-2.804 -4.694,-0.37 -9.394,-0.571 -14.102,-0.627 -4.207,-0.049 -9.011,-0.447 -12.896,1.48 -4.019,1.993 -6.033,6.253 -7.689,10.186 -3.502,8.317 -7.542,16.478 -10.332,25.071 -11.689,36.014 -7.362,74.666 -0.828,111.213 1.084,6.065 3.732,14.14 0.398,19.971 -3.441,6.021 -11.404,5.535 -17.393,5.731 -8.178,0.266 -16.228,-0.197 -23.884,-3.319 -7.241,-2.951 -14.247,-7.79 -22.25,-8.278 -8.057,-0.492 -14.567,5.113 -22.411,5.706 -5.164,0.39 -11.012,-1.439 -12.918,-6.725 -1.332,-3.696 -0.567,-7.926 -0.305,-11.728 0.323,-4.667 0.618,-9.336 0.904,-14.006 0.584,-9.539 1.123,-19.08 1.757,-28.616 0.633,-9.523 1.359,-19.04 2.32,-28.535 0.721,-7.138 0.842,-15.509 5.721,-21.277 11.539,-13.636 29.732,4.915 39.002,12.052 7.054,5.43 14.278,10.695 21.16,16.343 5.93,4.866 10.084,10.593 11.559,18.223 1.55,8.013 0.502,16.137 0.503,24.219 10e-4,4.79 0.997,9.132 1.713,13.818 0.629,4.126 0.4,8.351 0.222,12.503 -0.788,18.365 2.691,36.737 0.262,55.039 -2.431,18.332 -8.03,35.964 -9.478,54.478 -0.753,9.625 -0.52,19.267 -0.661,28.909 -0.059,4.027 -0.163,8.098 0.812,12.032 1.036,4.182 2.956,8.063 4.67,11.993 2.69,6.171 5.009,12.913 3.723,19.734 -1.271,6.74 -6.696,10.165 -12.634,12.577 -8.659,3.517 -17.467,7.227 -26.372,10.063 -3.774,1.201 -7.308,2.463 -10.836,4.275 -3.538,1.817 -7.831,4.178 -11.832,4.632 -5.42,0.617 -8.667,-2.918 -9.302,-7.98 -1.054,-8.411 -0.161,-17.206 0.383,-25.627 0.627,-9.723 1.567,-19.427 2.818,-29.09 0.503,-3.893 1.057,-7.779 1.655,-11.658 0.668,-4.33 1.848,-9.793 -0.745,-13.753 -2.788,-4.258 -8.121,-6.228 -5.475,-12.276 1.431,-3.27 4.7,-5.58 6.64,-8.56 2.113,-3.249 3.626,-6.826 4.626,-10.565 2.141,-8.017 1.879,-16.422 1.493,-24.634 -0.453,-9.597 -1.4,-19.161 -2.367,-28.717 -0.622,-6.152 -2.696,-14.352 0.91,-19.998 3.373,-5.282 10.435,-5.354 15.067,-1.765 5.099,3.949 6.501,10.675 6.719,16.784 0.309,8.684 -1.69,17.458 -0.346,26.107 1.278,8.226 6.476,13.957 11.261,20.389 4.532,6.092 7.165,12.666 7.049,20.348 -0.125,8.163 -3.013,15.918 -6.363,23.254 -3.919,8.584 -8.154,17.034 -12.249,25.535 -8.178,16.982 -16.357,33.963 -24.537,50.945 -3.684,7.65 -7.023,15.666 -12.326,22.379 -3.156,3.997 -9.796,10.412 -14.53,4.545 -1.805,-2.236 -2.351,-5.317 -2.695,-8.083 -0.589,-4.738 -0.851,-9.545 -1.159,-14.309 -0.572,-8.887 -0.833,-17.794 -0.944,-26.698 -0.054,-4.383 -0.105,-9.168 -1.984,-13.224 -1.56,-3.363 -4.602,-5.738 -7.395,-8.036 -4.848,-3.989 -8.272,-8.802 -5.838,-15.295 1.464,-3.901 3.048,-7.493 3.683,-11.651 0.725,-4.75 0.554,-9.616 0.005,-14.374 -1.033,-8.933 -3.181,-17.809 -5.14,-26.574 -1.933,-8.645 -4.123,-17.248 -7.039,-25.618 -3.163,-9.08 -7.535,-17.585 -11.516,-26.314 -3.27,-7.171 -6.448,-14.652 -7.832,-22.452 -0.91,-5.134 1.033,-12.406 7.206,-13.104 4.466,-0.506 8.429,3.737 8.352,8.093 -0.092,5.208 -5.754,8.639 -10.566,7.709 -5.837,-1.129 -8.284,-7.258 -9.294,-12.443 -1.665,-8.547 -2.364,-17.363 -3.543,-25.99 -1.25,-9.141 -2.538,-18.277 -3.766,-27.419 -1.05,-7.814 -2.206,-16.118 -0.887,-23.968 0.905,-5.383 3.585,-10.724 9.08,-12.559 4.58,-1.529 10.322,0.642 11.346,5.727 0.898,4.454 -2.415,8.445 -6.391,9.957 -4.961,1.887 -9.408,-0.146 -11.841,-4.696 -3.481,-6.508 -3.622,-15.06 -4.615,-22.231 -1.204,-8.699 -1.825,-17.475 -1.819,-26.259 0.003,-4.536 0.169,-9.073 0.51,-13.596 0.253,-3.364 0.155,-7.267 1.478,-10.422 1.242,-2.961 3.674,-3.966 6.645,-4.59 4.259,-0.894 8.686,-1.483 13.041,-1.385 6.137,0.139 12.425,1.219 14.379,7.834 2.334,7.905 2.204,16.538 2.599,24.694 0.906,18.673 0.764,37.311 1.071,55.998 0.308,18.846 0.769,37.697 0.844,56.546 0.031,7.619 0.593,15.571 -0.447,23.138 -1.047,7.616 -4.886,12.867 -10.779,17.632 -6.745,5.452 -13.131,10.635 -18.143,17.829 -4.653,6.68 -7.811,14.035 -9.933,21.87 -2.101,7.756 -4.129,15.166 -9.025,21.696 -4.405,5.874 -10.04,10.859 -15.825,15.336 -6.075,4.703 -12.411,8.864 -14.512,16.712 -1.051,3.926 -1.405,7.996 -2.215,11.971 -0.852,4.183 -2.371,8.104 -4.251,11.923 -3.747,7.608 -8.244,14.606 -10.175,22.978 -2.089,9.058 -2.181,18.395 -2.709,27.631 -0.24,4.185 -0.562,8.37 -1.175,12.519 -0.401,2.718 -0.913,5.868 -2.894,7.948 -4.834,5.076 -11.303,-2.296 -15.502,-4.728 -3.484,-2.017 -7.16,-3.68 -10.941,-5.058 -3.678,-1.34 -7.3,-2.171 -10.686,-4.157 -7.751,-4.543 -15.516,-8.811 -22.962,-13.876 -14.706,-10.004 -28.881,-20.847 -44.985,-28.579 -6.613,-3.175 -13.603,-5.696 -19.768,-9.733 C 94.212,146.005 88.681,139.638 83.297,133.849 72.027,121.729 61.336,108.821 53.421,94.217 49.722,87.392 46.626,80.215 44.414,72.768 41.984,64.584 40.946,55.849 36.717,48.304 33.018,41.703 27.443,36.187 25.503,28.683 23.418,20.616 25.193,12.162 23.49,4.038 20.782,-8.883 12.081,-19.487 4.624,-29.994 -2.958,-40.675 -9.43,-51.709 -9.919,-65.111 c -0.145,-3.995 -0.042,-8.234 -1.949,-11.872 -2.037,-3.888 -5.944,-6.245 -9.432,-8.671 -4.698,-3.27 -8.923,-7.337 -11.108,-12.755 -1.878,-4.654 -0.55,-9.619 3.979,-12.147 4.52,-2.52 10.329,-1.849 15.192,-0.917 17.861,3.428 35.776,8.827 54.055,4.853 16.139,-3.51 30.362,-13.18 40.788,-25.828 5.202,-6.311 9.481,-13.374 12.921,-20.784 1.701,-3.664 3.25,-7.434 4.468,-11.288 1.289,-4.083 1.9,-14.185 -5.287,-12.685 -3.665,0.765 -5.807,5.749 -7.619,8.565 -2.216,3.445 -4.556,6.809 -7.067,10.047 -4.865,6.277 -10.414,12.046 -16.888,16.678 -6.129,4.384 -13.163,7.777 -20.578,9.275 -8.165,1.651 -15.876,-0.798 -23.612,-3.234 -7.692,-2.423 -14.995,-5.407 -22.013,-9.412 -3.575,-2.04 -7.043,-4.267 -10.429,-6.606 -3.673,-2.538 -7.094,-5.682 -10.889,-8.005 -8.886,-5.442 -8.85,10.353 -9.217,15.451 -0.564,7.851 -0.329,15.927 2.019,23.498 5.127,16.53 21.173,22.77 36.928,25.377 18.374,3.041 36.053,0.009 53.344,-6.379 13.251,-4.898 30.029,-9.977 42.085,0.585 9.86,8.637 2.561,23.594 -6.256,29.782 -6.305,4.425 -14.087,6.672 -21.532,8.262 -8.303,1.772 -16.83,2.504 -25.314,2.244 -8.501,-0.261 -16.991,-1.493 -25.221,-3.638 -3.63,-0.946 -7.394,-1.921 -10.837,-3.422 -2.085,-0.908 -4.536,-2.43 -4.698,-4.968 -0.398,-6.237 11.344,-6.172 15.159,-6.706 8.569,-1.199 17.261,-2.054 25.577,-4.565 7.434,-2.245 14.742,-5.927 20.044,-11.723 2.424,-2.651 4.14,-5.659 5.618,-8.913 1.602,-3.527 3.175,-7.228 6.389,-9.607 5.81,-4.301 12.537,-0.696 17.95,2.447 5.44,3.16 10.943,7.18 12.22,13.743 0.738,3.791 0.077,7.626 -0.045,11.436 -0.163,5.091 1.112,9.853 4.357,13.87 4.586,5.677 9.073,9.904 9.686,17.616 0.307,3.867 -0.189,7.744 -0.076,11.615 0.141,4.814 1.67,8.826 4.738,12.495 4.391,5.252 9.631,9.563 12.43,15.999 1.395,3.206 1.475,6.124 0.721,9.484 -1.078,4.811 -1.927,9.31 -1.962,14.288 -0.067,9.294 1.562,18.467 3.17,27.587 1.506,8.542 3.025,17.139 3.185,25.835 0.162,8.75 -1.062,17.466 -2.722,26.037 -2.67,13.789 -5.063,30.057 -14.44,41.15 -4.238,5.014 -10.184,8.709 -16.811,9.299 -6.907,0.614 -12.711,-2.82 -17.101,-7.91 C 89.122,124.715 84.96,118.166 80.617,112.093 75.453,104.874 70.601,97.403 66.614,89.463 62.98,82.225 60.021,74.6 58.271,66.68 56.535,58.828 57.091,50.025 53.523,42.686 50.364,36.186 43.167,32.339 41.307,25.1 39.623,18.542 42.572,12.517 47.922,8.752 61.366,-0.705 78.026,-6.373 93.847,-10.327 c 11.262,-2.814 29.589,-7.793 36.429,5.347 2.626,5.045 3.393,13.127 10.085,14.434 8.303,1.621 14.841,-7.692 17.338,-14.329 5.446,-14.474 1.563,-31.04 9.119,-44.9 1.702,-3.122 3.864,-5.956 5.781,-8.943 2.787,-4.341 4.324,-8.565 4.884,-13.692 0.417,-3.817 0.456,-7.727 1.718,-11.392 1.377,-4.001 3.338,-7.471 3.608,-11.794 0.562,-8.962 -3.705,-17.332 -4.878,-26.078 -0.627,-4.677 -0.424,-9.444 -1.336,-14.086 -0.812,-4.137 -2.533,-8.166 -2.383,-12.451 0.235,-6.638 4.849,-10.405 11.083,-11.42 8.19,-1.332 16.935,-0.762 25.215,-0.975 6.82,-0.177 15.976,-1.962 21.793,2.61 5.865,4.608 6.322,12.64 4.98,19.396 -1.493,7.511 -4.95,14.237 -8.585,20.898 -4.071,7.462 -7.232,14.919 -9.276,23.194 -4.546,18.417 -4.953,37.643 -5.964,56.495 -0.973,18.159 -2.196,36.052 -6.461,53.788 -2.102,8.741 -5.012,17.236 -7.299,25.921 -2.411,9.156 -3.155,18.307 -2.988,27.752 0.332,18.771 1.308,37.557 1.915,56.323 0.15,4.675 0.343,9.35 0.453,14.026 0.07,3.01 0.028,6.186 -1.139,9.012 -2.389,5.785 -8.854,6.628 -13.73,3.276 -5.298,-3.641 -7.177,-10.229 -7.625,-16.322 -0.607,-8.257 0.516,-16.766 1.209,-24.989 0.394,-4.663 0.848,-9.321 1.407,-13.967 0.458,-3.814 1.539,-7.842 1.244,-11.69 -0.228,-2.97 -2.146,-5.92 -5.527,-3.851 -1.899,1.163 -2.976,3.223 -4.079,5.071 -2.328,3.897 -4.591,7.835 -6.737,11.837 -4.169,7.775 -8.191,15.879 -10.757,24.344 -2.199,7.252 -3.528,16.034 0.831,22.783 4.457,6.9 12.655,7.268 19.752,9.592 6.927,2.268 13.482,6.038 19.211,10.508 3.117,2.432 5.644,5.414 8.618,7.964 4.03,3.454 8.964,2.462 10.401,-2.645 2.255,-8.007 -0.451,-16.674 -0.318,-24.805 0.128,-7.846 3.245,-14.454 7.916,-20.629 5.245,-6.933 10.994,-13.562 16.601,-20.204 2.228,-2.64 4.392,-4.641 7.892,-5.22 4.375,-0.723 8.394,-0.389 12.499,-2.519 3.441,-1.786 5.814,-4.445 8.035,-7.54 1.533,-2.135 3.157,-4.349 5.436,-5.745 4.772,-2.926 11.495,-1.482 16.324,0.501 6.557,2.692 11.727,7.54 15.698,13.334 8.897,12.985 11.512,29.383 13.485,44.661 4.545,35.194 3.841,71.981 22.925,103.286 4.245,6.962 8.878,13.811 11.431,21.626 2.614,8.002 1.722,16.406 2.694,24.656 1.045,8.866 3.955,17.523 8.355,25.282 2.015,3.552 4.337,6.932 6.971,10.055 1.403,1.665 2.889,3.261 4.451,4.779 1.563,1.517 3.511,3.816 5.572,4.565 7.399,2.686 5.898,-7.51 5.591,-11.348 -0.378,-4.716 -0.542,-9.52 -1.303,-14.195 -1.364,-8.365 -6.338,-14.453 -12.706,-19.726 -1.752,-1.451 -3.569,-2.817 -5.393,-4.174 -1.926,-1.433 -4.287,-3.129 -5.763,0.052 -2.038,4.392 -1.862,9.595 2.024,12.68 1.77,1.405 3.4,2.834 3.401,5.258 10e-4,1.523 -0.817,2.853 -1.276,4.255 -1.011,3.088 0.429,5.601 2.679,7.691 1.983,1.842 4.393,3.307 5.779,5.708 1.542,2.673 2.836,6.926 2.325,10.042 -0.56,3.413 -3.773,5.35 -4.823,8.53 -1.144,3.464 0.676,7.207 -0.412,10.71 -0.846,2.722 -3.035,4.251 -5.239,5.826 -4.065,2.906 -5.25,6.117 -5.247,11.107 0.006,8.956 1.018,17.935 -0.229,26.858 -0.969,6.929 -3.443,13.986 -8.247,19.214 -4.364,4.749 -10.454,7.138 -16.734,8.016 -8.818,1.233 -17.881,1.15 -26.636,2.831 -7.576,1.453 -18.221,7.701 -14.729,17.123 1.859,5.017 8.249,5.932 10.473,0.695 0.999,-2.352 2.172,-4.117 4.897,-4.476 5.624,-0.74 8.965,5.505 9.487,10.227 1.665,15.056 -14.451,22.583 -27.216,21.02 -15.473,-1.895 -29.03,-11.979 -41.211,-20.954 -5.851,-4.311 -12.236,-8.233 -17.707,-13.018 -4.966,-4.343 -8.612,-10.813 -6.191,-17.463 0.356,-0.977 1.711,-1.28 2.284,-0.298 5.479,9.38 17.684,13.983 27.927,10.034 5.261,-2.029 9.843,-5.973 15.691,-6.23 4.004,-0.176 8.165,1.366 9.943,5.178 2.269,4.862 0.221,10.664 1.86,15.778 1.733,5.406 5.985,10.355 11.622,11.812 5.247,1.357 11.369,-0.25 14.968,-4.392 3.538,-4.071 3.2,-9.975 6.239,-14.321 2.967,-4.244 7.933,-4.531 12.673,-4.66 6.015,-0.163 11.894,-1.247 17.476,-3.539 11.627,-4.776 20.177,-14.173 24.358,-25.965 3.991,-11.252 4.491,-23.396 4.613,-35.221 0.018,-1.806 0.451,-4.561 -2.395,-3.951 -1.238,0.266 -2.607,1.688 -3.37,2.581 -2.214,2.594 -2.98,6.111 -3.466,9.396 -1.058,7.151 -0.767,14.419 -1.257,21.613 -0.845,12.446 -4.936,24.82 -11.214,35.577 -2.989,5.121 -6.499,9.926 -10.311,14.462 -3.252,3.87 -6.773,8.458 -10.922,11.412 -2.492,1.774 -7.763,3.257 -9.138,-0.679 -0.674,-1.932 0.372,-4.054 0.444,-5.992 0.114,-3.057 -0.817,-6.073 -2.471,-8.628 -3.451,-5.331 -9.643,-8.062 -15.888,-7.684 -6.69,0.404 -12.697,3.759 -18.491,6.817 -4.915,2.594 -10.202,5.285 -15.869,5.526 -5.26,0.224 -10.565,-2.216 -14.78,-5.173 -4.625,-3.245 -7.963,-7.754 -11.683,-11.93 -4.269,-4.793 -9.474,-8.321 -14.4,-12.368 -9.018,-7.407 -12.124,-18.893 -14.503,-29.938 -1.347,-6.257 -2.199,-12.68 -2.309,-19.083 -0.101,-5.818 -0.721,-12.524 1.373,-18.085 3.874,-10.289 14.64,-13.995 24.751,-11.798 2.953,0.642 5.833,1.599 8.801,2.173 3.971,0.769 7.976,0.741 11.994,0.427 3.195,-0.25 6.412,-0.851 9.616,-0.918 1.8,-0.039 3.893,0.17 5.216,1.551 2.913,3.042 0.254,9.613 -0.282,13.134 -0.75,4.926 -0.766,10.095 -5.602,12.769 -4.435,2.452 -10.264,2.775 -15.183,3.43 -5.372,0.715 -12.014,2.301 -17.117,-0.246 -4.758,-2.375 -7.433,-6.96 -8.748,-11.931 -0.308,-1.167 1.225,-2.161 2.09,-1.217 0.636,0.694 2.256,1.032 3.158,1.363 1.646,0.603 3.332,1.084 5.056,1.409 4.409,0.832 8.877,0.413 13.299,-0.065 7.697,-0.832 16.705,-1.633 23.226,-6.269 4.163,-2.959 5.413,-7.146 4.297,-12.069 -1.002,-4.416 -2.847,-9.425 -5.174,-13.297 -2.988,-4.973 -9.228,-9.389 -6.847,-16.05 0.726,-2.03 2.307,-3.685 4.268,-4.572 3.513,-1.587 7.158,0.73 10.575,-1.076 2.104,-1.113 3.99,-2.536 6.51,-2.062 2.756,0.518 4.483,3.131 7.135,3.763 2.837,0.676 5.169,-1.936 8.034,-1.662 2.396,0.229 3.86,2.127 4.674,4.23 1.086,2.803 1.131,6.161 0.13,8.995 -0.912,2.579 -2.814,4.243 -4.645,6.169 -3.193,3.359 -4.334,8.033 -4.157,12.627 0.235,6.039 5.129,8.268 10.293,9.666 9.214,2.493 19.697,1.299 27.249,-4.879 1.236,-1.01 3.015,0.749 1.769,1.769 -5.457,4.461 -12.441,6.779 -19.469,6.863 -6.456,0.077 -15.855,-1.288 -20.181,-6.694 -3.699,-4.625 -2.509,-13.525 0.392,-18.274 1.538,-2.518 4.219,-4.088 5.716,-6.616 2.297,-3.882 1.663,-13.085 -4.612,-10.703 -2.424,0.921 -4.366,1.701 -6.878,0.607 -1.344,-0.585 -2.421,-1.554 -3.651,-2.324 -2.293,-1.438 -3.93,-1.082 -6.273,0.23 -2.608,1.46 -4.612,1.747 -7.583,1.357 -6.89,-0.906 -8.739,5.423 -5.528,10.558 1.961,3.137 4.648,5.431 6.23,8.831 1.764,3.79 3.452,7.813 4.434,11.88 1.651,6.841 -1.02,12.466 -7.072,15.913 -7.49,4.267 -16.783,5.035 -25.195,5.833 -4.248,0.403 -8.475,0.458 -12.66,-0.48 -2.206,-0.495 -6.613,-1.376 -8.288,-3.203 l 2.089,-1.216 c 1.967,7.436 6.982,11.869 14.86,11.274 6.227,-0.469 12.648,-1.157 18.724,-2.656 2.806,-0.692 5.773,-1.825 6.881,-4.748 1.205,-3.178 1.223,-7.094 1.75,-10.434 0.174,-1.1 0.379,-2.183 0.607,-3.272 0.39,-1.855 0.96,-3.497 -0.56,-4.854 -2.217,-1.978 -7.311,-0.43 -10.044,-0.162 -6.345,0.619 -12.305,0.515 -18.494,-1.069 -6.298,-1.612 -12.651,-3.373 -18.835,-0.314 -6.132,3.033 -9.291,8.93 -9.547,15.604 -0.254,6.634 -0.215,13.347 0.584,19.942 0.816,6.734 2.321,13.385 4.412,19.837 1.667,5.145 3.302,10.557 7.033,14.63 3.998,4.365 9.244,7.413 13.681,11.294 4.598,4.021 8.023,9.113 12.392,13.351 4.254,4.126 10.44,7.811 16.535,7.749 6.285,-0.063 12.11,-3.654 17.501,-6.495 8.95,-4.716 19.848,-8.831 29.281,-2.923 3.653,2.289 6.522,5.742 7.957,9.816 0.675,1.916 1.019,4.016 0.946,6.05 -0.034,0.946 -0.323,1.849 -0.379,2.779 -0.042,0.675 -0.101,2.684 0.63,3.13 0.892,0.546 2.714,-0.234 3.573,-0.688 2.252,-1.191 3.959,-3.413 5.685,-5.232 2.131,-2.245 4.209,-4.538 6.191,-6.916 3.889,-4.665 7.421,-9.649 10.381,-14.957 6.615,-11.864 9.855,-24.872 10.32,-38.388 0.318,-9.237 -1.123,-24.258 8.262,-29.823 3.283,-1.947 6.503,-1.468 6.953,2.743 0.573,5.36 -0.087,11.241 -0.486,16.607 -0.79,10.628 -2.744,21.469 -8.116,30.818 -5.191,9.035 -13.44,15.755 -23.134,19.478 -4.836,1.857 -9.985,2.925 -15.158,3.189 -2.919,0.15 -6.022,-0.136 -8.837,0.813 -3.533,1.192 -4.894,4.37 -5.902,7.663 -1.297,4.242 -2.447,8.293 -5.935,11.288 -3.126,2.683 -7.28,4.123 -11.386,4.15 -8.948,0.06 -16.197,-7.058 -18.275,-15.446 -1.207,-4.874 1.334,-13.034 -3.199,-16.315 -5.425,-3.926 -12.109,0.386 -17.067,2.929 -8.231,4.223 -17.554,4.273 -25.625,-0.485 -3.706,-2.185 -6.729,-5.26 -8.895,-8.968 0.761,-0.1 1.523,-0.199 2.284,-0.299 -3.288,9.033 5.553,15.297 11.908,19.765 6.401,4.5 12.576,9.313 19.002,13.777 12.136,8.432 28.864,18.933 44.223,13.671 7.825,-2.68 14.147,-10.39 11.975,-19.008 -0.453,-1.801 -1.371,-3.679 -2.778,-4.939 -1.144,-1.026 -3.458,-2.012 -4.896,-0.847 -0.906,0.735 -1.308,2.222 -1.862,3.188 -1.215,2.115 -2.745,3.696 -5.204,4.322 -5.225,1.328 -9.459,-3.086 -10.194,-7.963 -0.82,-5.452 2.152,-10.842 6.48,-13.986 5.805,-4.218 13.08,-4.641 19.963,-5.357 7.819,-0.813 16.489,-0.599 23.946,-3.284 17.078,-6.149 17.314,-26.724 16.812,-41.836 -0.193,-5.831 -1.57,-13.635 2.591,-18.502 2.012,-2.354 5.37,-3.398 7.09,-5.987 2.134,-3.212 0.107,-7.57 0.83,-11.115 0.626,-3.069 3.041,-4.871 4.412,-7.532 1.919,-3.725 -0.63,-9.814 -3.466,-12.421 -2.109,-1.937 -4.515,-3.494 -5.975,-6.039 -1.655,-2.885 -1.207,-5.27 -0.175,-8.235 0.903,-2.592 0.284,-3.966 -1.83,-5.63 -0.82,-0.646 -1.647,-1.25 -2.308,-2.071 -1.899,-2.358 -2.108,-5.409 -1.681,-8.297 0.611,-4.13 2.335,-10.656 7.929,-8.217 2.512,1.095 4.818,3.374 6.96,5.067 2.913,2.303 5.74,4.761 8.149,7.598 4.532,5.336 6.554,11.33 7.27,18.232 0.405,3.903 0.651,7.828 0.963,11.739 0.256,3.193 0.847,6.699 -0.485,9.745 -2.711,6.204 -8.658,3.853 -12.592,0.426 -11.25,-9.803 -19.033,-23.642 -21.98,-38.235 -1.631,-8.074 -0.807,-16.319 -2.16,-24.382 -1.318,-7.861 -5.372,-14.86 -9.492,-21.552 -4.112,-6.678 -8.079,-13.314 -11.093,-20.578 -3.074,-7.41 -5.335,-15.136 -7.051,-22.966 -3.454,-15.77 -4.731,-31.889 -6.242,-47.929 -1.508,-16.029 -2.878,-32.659 -8.351,-47.924 -2.562,-7.144 -6.256,-14.173 -11.738,-19.52 -5.105,-4.98 -12.858,-9.01 -20.194,-8.061 -6.212,0.804 -8.28,7.742 -12.516,11.431 -2.172,1.891 -4.68,3.354 -7.395,4.316 -3.656,1.295 -7.395,0.717 -11.07,1.641 -4.03,1.013 -6.556,5.325 -9.06,8.347 -3.007,3.629 -6.018,7.254 -9.022,10.886 -5.369,6.492 -10.676,13.263 -11.384,21.977 -0.615,7.568 1.438,15.077 0.903,22.648 -0.312,4.412 -1.399,10.222 -6.452,11.438 -6.602,1.588 -10.72,-4.858 -15.012,-8.543 -5.973,-5.129 -13.109,-9.454 -20.613,-11.911 -5.716,-1.871 -12.042,-2.371 -16.983,-6.107 -4.779,-3.614 -7.084,-9.31 -7.418,-15.168 -0.392,-6.864 1.66,-13.716 4.145,-20.032 2.937,-7.459 6.476,-14.67 10.349,-21.684 1.909,-3.456 3.875,-6.886 5.933,-10.255 1.44,-2.358 3.155,-4.76 5.903,-5.67 5.142,-1.704 7.74,3.173 7.776,7.558 0.03,3.613 -0.839,7.292 -1.268,10.861 -0.559,4.646 -1.013,9.304 -1.407,13.967 -0.668,7.919 -1.695,16.063 -1.27,24.018 0.188,3.507 0.751,7.144 2.397,10.291 1.987,3.799 6.864,8.417 11.526,5.975 3.291,-1.723 3.627,-6.247 3.657,-9.502 0.036,-3.98 -0.227,-7.982 -0.355,-11.959 -0.574,-17.763 -1.133,-35.524 -1.831,-53.282 -0.327,-8.336 -0.536,-16.745 0.706,-25.019 1.212,-8.074 3.797,-15.787 6.09,-23.595 4.989,-16.983 7.822,-34.09 8.945,-51.74 1.107,-17.394 1.423,-34.903 3.509,-52.219 0.96,-7.971 2.361,-15.903 4.607,-23.619 2.071,-7.112 5.226,-13.508 8.759,-19.988 3.82,-7.008 7.533,-14.397 8.314,-22.468 0.38,-3.924 -0.089,-8.048 -2.398,-11.356 -2.925,-4.191 -7.633,-4.736 -12.364,-4.676 -8.729,0.111 -17.461,0.45 -26.188,0.676 -7.627,0.197 -17.907,0.214 -17.681,10.518 0.09,4.067 1.847,7.95 2.503,11.935 0.673,4.091 0.59,8.252 1.064,12.364 0.973,8.434 4.808,16.329 5.053,24.878 0.222,7.718 -4.249,13.982 -4.982,21.531 -0.347,3.56 -0.514,7.182 -1.525,10.634 -0.983,3.353 -2.741,6.362 -4.654,9.262 -1.953,2.959 -4.095,5.814 -5.693,8.992 -1.948,3.877 -3.01,8.123 -3.678,12.39 -1.152,7.352 -1.086,14.843 -2.378,22.177 -1.779,10.095 -7.883,24.971 -20.267,25.112 -5.598,0.065 -9.076,-3.79 -11.097,-8.585 -2.506,-5.946 -4.069,-11.842 -11.043,-13.818 -7.114,-2.014 -14.978,-0.055 -21.971,1.538 -8.074,1.842 -16.02,4.246 -23.764,7.185 -7.637,2.897 -14.868,6.148 -21.837,10.406 -3.086,1.885 -6.313,3.856 -7.936,7.236 -2.053,4.277 -1.251,9.105 1.364,12.918 3.98,5.803 9.355,9.6 11.428,16.652 2.104,7.159 2.002,14.793 3.767,22.045 3.903,16.03 12.52,30.362 22.055,43.639 4.278,5.957 8.335,12.571 13.273,17.999 5.909,6.496 14.106,8.367 22.052,4.218 12.363,-6.455 16.103,-21.783 18.917,-34.276 1.963,-8.718 3.88,-17.49 4.741,-26.398 0.862,-8.91 0.351,-17.724 -0.997,-26.559 -2.37,-15.544 -7.063,-31.98 -4.105,-47.772 0.717,-3.823 2.414,-7.427 1.285,-11.353 -1.112,-3.866 -3.945,-7.497 -6.599,-10.434 -4.244,-4.698 -9.339,-8.984 -10.805,-15.442 -1.688,-7.434 1.177,-15.433 -1.89,-22.602 -2.753,-6.434 -9.105,-10.209 -11.485,-16.929 -2.637,-7.443 1.409,-16.026 -2.239,-23.046 -1.628,-3.135 -4.523,-5.391 -7.437,-7.26 -3.273,-2.099 -6.981,-4.493 -10.804,-5.352 -9.835,-2.206 -11.767,10.415 -15.985,16.358 -3.458,4.872 -8.263,8.648 -13.52,11.421 -14.132,7.454 -30.102,6.806 -45.299,10.263 -2.119,0.483 -5.358,2.498 -2.163,4.636 1.538,1.028 3.56,1.538 5.301,2.105 4.087,1.332 8.247,2.44 12.457,3.307 8.116,1.672 16.413,2.435 24.698,2.24 8.269,-0.193 16.504,-1.358 24.479,-3.566 7.353,-2.037 15.236,-5.039 20.215,-11.126 3.873,-4.734 6.683,-12.977 3.187,-18.635 -3.9,-6.312 -12.906,-8.375 -19.794,-8.249 -8.111,0.149 -15.86,3.232 -23.367,6.003 -7.822,2.888 -15.69,5.24 -23.971,6.381 -15.087,2.079 -31.421,0.925 -45.69,-4.66 -5.702,-2.233 -11.202,-5.327 -15.398,-9.858 -4.355,-4.702 -6.877,-10.798 -8.214,-17.005 -1.498,-6.95 -1.568,-14.157 -0.991,-21.217 0.399,-4.898 0.222,-12.096 3.591,-16.074 4.119,-4.862 9.657,-0.222 13.372,2.575 6.126,4.611 12.475,8.957 19.21,12.636 7.298,3.988 14.94,6.694 22.86,9.143 4.011,1.24 8.111,2.429 12.326,2.651 4.349,0.229 8.633,-0.77 12.714,-2.205 15.063,-5.297 26.333,-17.397 35.04,-30.339 2.849,-4.236 5.891,-11.98 11.774,-12.645 6.021,-0.68 9.072,5.591 8.654,10.752 -0.549,6.785 -4.229,13.938 -7.245,19.948 -3.198,6.376 -7.054,12.413 -11.558,17.946 -8.966,11.015 -20.715,19.795 -34.14,24.574 -15.26,5.431 -31.218,4.111 -46.826,1.017 -7.029,-1.392 -14.144,-3.701 -21.314,-4.186 -5.576,-0.378 -13.958,1.624 -11.976,9.078 1.766,6.637 7.685,10.779 12.947,14.487 5.306,3.739 9.003,7.899 9.812,14.56 0.808,6.645 0.441,12.955 2.687,19.387 2.067,5.92 5.335,11.351 8.824,16.53 6.793,10.087 14.916,19.505 19.6,30.851 2.437,5.901 3.442,11.91 3.53,18.277 0.058,4.1 -0.111,8.253 0.581,12.312 0.681,3.996 2.354,7.515 4.532,10.898 4.009,6.227 8.247,11.752 10.517,18.918 2.385,7.527 3.668,15.316 6.417,22.745 5.379,14.535 13.991,27.7 23.781,39.631 5.245,6.393 10.792,12.564 16.551,18.498 5.524,5.691 10.968,11.042 18.074,14.708 6.39,3.298 13.11,5.889 19.484,9.229 7.071,3.704 13.815,7.969 20.416,12.449 6.935,4.707 13.721,9.63 20.664,14.326 7.125,4.819 14.569,8.865 21.972,13.205 3.32,1.946 7.006,2.752 10.597,4.09 3.465,1.291 6.857,2.794 10.09,4.592 3.146,1.749 5.838,4.167 8.924,5.951 4.718,2.726 6.124,-3.169 6.647,-6.538 2.548,-16.413 0.105,-33.858 6.795,-49.48 3.004,-7.016 7.518,-13.333 10.067,-20.552 2.533,-7.173 1.99,-15.328 5.455,-22.171 2.688,-5.307 7.598,-8.809 12.222,-12.308 6.053,-4.581 12.066,-9.681 16.667,-15.763 5.039,-6.661 6.877,-14.319 9.075,-22.209 1.936,-6.946 4.772,-13.568 8.714,-19.621 3.781,-5.807 8.436,-11.031 13.795,-15.425 6.135,-5.03 13.111,-9.254 15.309,-17.387 1.925,-7.126 1.096,-15.126 1.1,-22.432 0.005,-8.933 -0.144,-17.865 -0.293,-26.796 -0.285,-17.173 -0.669,-34.347 -0.721,-51.523 -0.054,-17.355 -0.005,-34.894 -1.73,-52.183 -0.374,-3.741 -0.525,-9.152 -2.733,-12.392 -2.35,-3.446 -7.814,-3.493 -11.534,-3.521 -4.097,-0.033 -8.245,0.535 -12.242,1.408 -5.677,1.24 -5.324,6.5 -5.715,11.273 -0.707,8.64 -0.787,17.329 -0.282,25.982 0.483,8.259 1.803,16.38 2.858,24.572 0.747,5.802 2.224,17.425 10.635,15.457 2.559,-0.599 5.119,-2.481 5.809,-5.122 1.07,-4.101 -2.885,-7.067 -6.674,-6.506 -7.19,1.064 -8.966,9.332 -9.174,15.36 -0.313,9.11 1.225,18.18 2.492,27.166 1.231,8.726 2.371,17.464 3.556,26.196 0.992,7.315 1.096,15.378 3.527,22.382 1.159,3.334 3.481,6.771 7.393,6.865 3.756,0.09 7.576,-3.164 6.261,-7.145 -1.448,-4.383 -6.451,-4.934 -9.058,-1.245 -2.695,3.816 -1.207,8.591 -0.054,12.678 4.498,15.929 13.674,30.059 18.877,45.755 5.111,15.411 8.867,31.874 11.153,47.949 1.046,7.352 1.275,14.903 -0.7,22.126 -0.945,3.452 -3.455,7.046 -3.481,10.639 -0.032,4.351 2.857,6.874 5.939,9.41 5.186,4.268 8.616,8.309 9.62,15.14 1.12,7.627 0.588,15.637 0.875,23.332 0.324,8.693 0.45,17.696 1.824,26.298 0.273,1.711 0.66,3.979 1.735,5.384 2.535,3.31 5.932,1.205 8.176,-0.975 3.007,-2.919 5.368,-6.564 7.419,-10.195 4.11,-7.282 7.456,-15.049 11.083,-22.578 3.811,-7.912 7.621,-15.824 11.432,-23.736 7.664,-15.912 15.97,-31.67 22.925,-47.907 3.422,-7.989 6.005,-16.864 4.315,-25.601 -1.416,-7.319 -6.223,-12.696 -10.58,-18.453 -4.345,-5.739 -7.028,-11.696 -7.534,-18.939 -0.554,-7.914 1.019,-15.801 0.64,-23.717 -0.168,-3.51 -0.719,-7.167 -2.429,-10.29 -2.136,-3.898 -6.634,-7.25 -11.27,-5.585 -7.674,2.756 -4.64,14.874 -4.041,20.78 0.882,8.707 1.756,17.419 2.263,26.157 0.436,7.534 0.815,15.172 -0.254,22.672 -0.953,6.686 -3.172,13.194 -7.208,18.665 -1.92,2.602 -5.911,5.309 -5.867,8.832 0.036,2.922 3.181,4.519 4.88,6.496 4.085,4.75 2.86,11.327 1.989,16.985 -1.402,9.103 -2.537,18.243 -3.389,27.413 -0.821,8.857 -1.394,17.743 -1.682,26.634 -0.206,6.38 -1.739,19.589 8.656,16.754 3.861,-1.054 7.456,-3.163 11.008,-4.951 3.196,-1.608 6.568,-2.547 9.961,-3.644 8.136,-2.628 16.091,-6.084 24.057,-9.189 3.336,-1.3 6.872,-2.675 9.474,-5.231 3.231,-3.176 3.754,-7.761 3.339,-12.067 -0.719,-7.448 -4.799,-13.883 -7.314,-20.782 -2.628,-7.21 -2.1,-14.566 -2.004,-22.114 0.112,-8.658 -0.016,-17.242 0.774,-25.879 1.556,-17.037 6.514,-33.341 9.014,-50.203 2.573,-17.349 -0.828,-34.428 -0.23,-51.789 0.142,-4.147 0.454,-8.292 0.376,-12.443 -0.081,-4.321 -1.294,-8.34 -1.802,-12.596 -0.984,-8.241 0.515,-16.569 -0.077,-24.833 -0.632,-8.805 -3.949,-15.704 -10.702,-21.419 -6.582,-5.571 -13.665,-10.623 -20.498,-15.882 -6.42,-4.943 -12.737,-10.793 -19.853,-14.711 -3.645,-2.007 -8.035,-3.245 -12.142,-1.973 -4.534,1.403 -7.025,5.849 -8.178,10.159 -2.275,8.504 -2.34,18.01 -3.044,26.76 -0.697,8.672 -1.258,17.354 -1.787,26.037 -0.53,8.696 -1.027,17.395 -1.595,26.089 -0.477,7.3 -3.496,19.205 6.511,20.913 7.589,1.295 14.133,-4.015 21.339,-5.28 6.537,-1.149 12.76,1.104 18.62,3.799 7.207,3.313 13.886,6.636 21.925,7.343 3.89,0.343 7.806,0.269 11.704,0.12 4.017,-0.154 9.371,0.253 12.596,-2.608 2.858,-2.533 2.846,-6.736 2.477,-10.227 -0.475,-4.492 -1.549,-8.951 -2.321,-13.398 -1.464,-8.422 -2.781,-16.871 -3.803,-25.358 -2.039,-16.928 -2.878,-34.069 -1.226,-51.068 1.594,-16.408 5.696,-31.967 12.355,-47.03 2.749,-6.218 4.811,-14.027 9.493,-19.142 4.677,-5.108 11.614,-4.852 17.996,-4.778 7.692,0.09 16.364,-0.198 23.822,1.983 6.294,1.84 8.439,6.058 9.116,12.227 0.429,3.928 0.508,7.961 1.64,11.775 1.254,4.222 4.001,6.895 6.546,10.31 4.537,6.088 1.61,13.845 4.93,20.462 3.509,6.994 10.343,12.559 16.772,16.759 6.919,4.519 14.822,7.691 23.115,8.304 7.982,0.59 16.486,-1.072 22.99,-5.944 7.346,-5.503 9.137,-13.435 7.086,-22.129 -0.937,-3.97 -2.243,-7.881 -3.653,-11.706 -1.603,-4.349 -3.212,-11.052 -9.187,-9.852 -3.622,0.727 -7.043,2.426 -10.663,3.263 -3.92,0.906 -7.953,1.404 -11.976,1.493 -3.638,0.08 -7.277,-0.197 -10.868,-0.783 -4.384,-0.716 -9.63,-3.296 -14.053,-1.942 -3.59,1.099 -5.805,4.585 -8.504,6.958 -2.502,2.2 -5.391,3.796 -8.454,5.079 -6.575,2.756 -13.86,3.964 -19.916,7.891 -3.345,2.17 -5.963,4.973 -6.806,8.966 -0.734,3.472 -0.497,7.107 -1.71,10.486 -1.847,5.141 -7.262,7.6 -9.418,12.445 -3.401,7.638 7.083,14.4 12.476,17.684 13.84,8.428 30.37,10.364 46.274,9.63 4.186,-0.194 8.373,-0.546 12.534,-1.042 3.165,-0.377 8.041,-0.881 9.843,-3.992 2.984,-5.153 -4.154,-7.732 -7.99,-7.893 -3.843,-0.161 -7.631,0.235 -11.48,-0.179 -6.744,-0.725 -13.308,-2.716 -19.316,-5.869 -2.918,-1.532 -5.674,-3.342 -8.254,-5.394 -3.203,-2.545 -5.932,-5.809 -9.428,-7.965 -3.92,-2.416 -8.474,-2.854 -11.914,0.589 -3.079,3.081 -4.355,7.771 -5.436,11.858 -1.996,7.548 -3.555,14.696 -7.887,21.328 -4.235,6.481 -9.154,12.345 -12.568,19.351 -3.387,6.948 -5.638,14.411 -7.151,21.976 -1.664,8.321 -2.397,16.796 -2.736,25.266 -0.152,3.825 -0.089,7.664 -0.303,11.486 -0.21,3.759 -0.845,7.482 1.284,10.833 1.72,2.708 4.057,5.03 5.972,7.609 2.829,3.808 5.632,7.636 8.449,11.454 5.249,7.116 10.498,14.231 15.747,21.347 4.401,5.966 9.083,11.908 11.895,18.834 1.37,3.371 1.899,7.204 3.769,10.352 1.581,2.66 5.407,5.13 8.627,4.05 3.548,-1.19 4.051,-6.779 5.181,-9.833 1.334,-3.606 3.417,-6.93 5.457,-10.171 2.071,-3.29 4.293,-6.604 4.953,-10.522 0.834,-4.957 -1.509,-8.575 -5.407,-11.302 -6.21,-4.344 -12.7,-8.27 -18.817,-12.766 -6.124,-4.502 -10.95,-10.211 -16.156,-15.688 -5.333,-5.609 -11.266,-11.243 -18.633,-14.021 -3.43,-1.293 -7.459,-2.232 -11.092,-1.253 -4.398,1.185 -6.603,5.049 -8.598,8.817 -7.416,14.008 -9.929,30.011 -11.791,45.566 -2.089,17.447 -2.966,35.187 0.194,52.569 2.552,14.036 9.12,34.582 26.864,34.252 8.034,-0.15 14.289,-6.19 19.499,-11.637 5.823,-6.088 11.485,-12.342 17.025,-18.688 11.031,-12.636 21.669,-25.752 31.089,-39.644 4.674,-6.891 7.587,-13.727 9.075,-21.913 0.566,-3.113 1.145,-6.242 2.358,-9.18 1.373,-3.325 3.597,-5.805 5.985,-8.43 3.154,-3.465 4.646,-6.691 4.516,-11.443 -0.107,-3.907 -0.554,-7.673 0.145,-11.56 1.263,-7.03 5.026,-13.337 8.79,-19.288 4.238,-6.702 7.77,-13.32 9.716,-21.072 1.871,-7.456 2.46,-15.163 2.536,-22.829 0.154,-15.618 -1.067,-31.287 -1.371,-46.907 -0.347,-17.899 -0.695,-35.799 -1.043,-53.698 -0.157,-8.091 0.143,-16.341 -0.747,-24.393 -0.83,-7.521 -3.664,-14.932 -11.453,-17.49 -7.5,-2.464 -16.459,-1.333 -24.228,-1.328 -9.062,0.006 -18.124,0.012 -27.186,0.018 -18.124,0.01 -36.248,0.021 -54.372,0.033 -71.534,0.044 -143.068,0.089 -214.603,0.133 -35.588,0.021 -71.177,0.029 -106.765,0.084 -17.925,0.028 -35.853,0.072 -53.777,-0.111 -17.866,-0.18 -35.732,-0.77 -53.599,-0.456 -8.154,0.145 -16.898,-0.211 -24.941,1.286 -8.259,1.538 -10.556,8.191 -11.782,15.609 -1.39,8.412 -0.595,17.232 -0.445,25.715 0.153,8.64 0.306,17.281 0.459,25.921 0.307,17.282 0.613,34.563 0.919,51.844 C 0.903,-33.518 2.139,-16.779 2.5,0 2.535,1.609 0.035,1.608 0,0" /></g></g></g></g></svg>